<?xml version="1.0" standalone="no"?>
<!DOCTYPE svg PUBLIC "-//W3C//DTD SVG 20010904//EN"
 "http://www.w3.org/TR/2001/REC-SVG-20010904/DTD/svg10.dtd">
<svg version="1.0" xmlns="http://www.w3.org/2000/svg"
 width="1346.000000pt" height="1521.000000pt" viewBox="0 0 1346.000000 1521.000000"
 preserveAspectRatio="xMidYMid meet">

<g transform="translate(0.000000,1521.000000) scale(0.100000,-0.100000)"
fill="#D4AF37" stroke="none">
<path d="M4224 14915 c-4 -8 -17 -15 -30 -15 -21 0 -24 -5 -24 -36 0 -30 -7
-43 -42 -75 -24 -21 -48 -38 -54 -39 -11 0 -98 -83 -151 -144 -23 -26 -39 -36
-61 -36 -16 0 -35 -7 -42 -15 -7 -8 -20 -15 -29 -15 -9 0 -31 -13 -49 -30 -18
-16 -39 -30 -46 -30 -8 0 -19 -7 -26 -15 -7 -8 -17 -15 -23 -15 -5 0 -15 -8
-22 -17 -18 -24 -81 -23 -99 2 -12 17 -17 18 -41 7 -17 -8 -31 -9 -39 -3 -6 5
-22 11 -36 13 -16 2 -26 11 -30 28 -6 24 -8 25 -93 24 -60 -1 -87 3 -87 11 0
28 -46 55 -96 55 -42 1 -53 5 -73 30 l-24 29 -26 -20 c-20 -15 -33 -17 -56
-10 -42 12 -70 -2 -100 -49 -14 -22 -31 -40 -38 -40 -17 0 -47 -36 -47 -58 0
-25 -53 -62 -89 -62 -16 0 -31 -6 -35 -15 -7 -20 -62 -19 -74 1 -11 19 -52 15
-63 -6 -4 -8 -10 -27 -14 -42 -4 -20 -12 -28 -26 -28 -25 0 -68 33 -83 63 -9
17 -22 23 -59 25 -30 2 -50 8 -54 18 -8 22 -28 17 -67 -18 -31 -27 -36 -38
-36 -74 0 -57 -8 -74 -35 -74 -29 0 -53 26 -37 42 6 6 7 17 2 27 -5 9 -11 24
-14 34 -3 9 -14 17 -25 17 -30 0 -38 -26 -37 -125 1 -78 5 -98 31 -152 l30
-63 53 0 c39 0 58 -5 75 -21 20 -19 22 -28 19 -117 -2 -54 -9 -107 -17 -122
-35 -68 -47 -110 -41 -144 4 -20 11 -36 16 -36 6 0 10 -7 10 -15 0 -7 7 -18
16 -23 19 -11 15 -62 -6 -72 -8 -4 -27 -13 -41 -20 -39 -18 -62 -63 -54 -109
4 -22 1 -57 -6 -82 -7 -24 -14 -48 -14 -54 -6 -40 -19 -92 -27 -102 -6 -7 -5
-19 1 -32 6 -11 11 -31 11 -45 0 -13 7 -31 15 -40 8 -8 15 -18 15 -21 0 -4 9
-19 21 -33 22 -28 20 -81 -4 -108 -7 -7 -23 -27 -37 -44 -16 -20 -33 -30 -52
-30 -69 0 -139 -57 -119 -98 4 -10 15 -32 24 -50 9 -19 17 -49 17 -68 0 -19 7
-51 15 -71 8 -19 15 -60 15 -89 0 -57 25 -134 47 -147 18 -11 16 -34 -3 -41
-9 -3 -35 -6 -58 -6 -75 0 -100 -58 -49 -112 38 -40 55 -95 40 -128 -10 -21
-20 -25 -64 -28 -44 -3 -52 -6 -57 -27 -8 -32 3 -85 26 -117 12 -17 17 -36 13
-48 -8 -26 -63 -80 -80 -80 -8 0 -30 16 -49 36 -19 20 -39 33 -44 30 -19 -12
-23 -58 -8 -75 9 -10 19 -31 22 -48 5 -24 1 -35 -15 -49 -12 -10 -21 -24 -21
-31 0 -7 -4 -13 -9 -13 -4 0 -11 -31 -15 -69 -7 -85 -16 -102 -90 -173 -58
-57 -59 -57 -64 -126 -3 -53 -1 -72 11 -84 9 -9 19 -29 22 -44 4 -16 12 -39
18 -52 8 -17 8 -25 -1 -34 -17 -17 -15 -59 4 -97 15 -30 15 -34 -3 -54 -31
-35 -43 -74 -43 -135 0 -32 -5 -63 -12 -70 -22 -22 6 -59 51 -67 24 -4 41 -12
41 -20 0 -8 7 -21 16 -29 44 -45 18 -167 -51 -241 -36 -38 -45 -54 -45 -84 0
-34 50 -150 77 -179 7 -7 13 -35 13 -62 0 -27 5 -52 10 -55 21 -13 10 -62 -20
-91 -16 -16 -30 -35 -30 -43 0 -8 -8 -23 -17 -34 -13 -14 -17 -31 -14 -66 2
-25 4 -82 5 -126 1 -69 -2 -85 -21 -108 -47 -60 -89 -178 -76 -213 12 -35 48
-61 91 -68 58 -9 99 -35 141 -88 30 -39 -40 -66 -83 -33 -35 26 -65 18 -117
-32 -57 -55 -79 -93 -79 -137 1 -24 14 -44 60 -91 63 -63 69 -82 45 -129 -8
-15 -15 -34 -15 -41 0 -7 -7 -18 -15 -25 -8 -7 -15 -27 -15 -45 0 -26 8 -39
32 -59 29 -22 31 -27 20 -50 -12 -27 -54 -37 -67 -16 -3 6 -22 10 -42 10 l-36
0 6 -75 c7 -100 -4 -133 -63 -191 -44 -43 -50 -53 -44 -79 8 -40 51 -75 91
-75 50 0 74 -30 72 -88 -2 -26 1 -80 5 -119 l8 -73 -28 -10 c-43 -16 -94 -44
-94 -52 0 -3 -10 -8 -21 -10 -37 -5 -79 -68 -86 -127 -6 -55 -27 -77 -63 -66
-10 3 -21 1 -25 -5 -3 -5 -15 -10 -27 -10 -11 0 -36 -13 -55 -30 -18 -17 -45
-30 -59 -30 -17 0 -27 -8 -34 -24 -5 -13 -14 -27 -19 -31 -19 -11 -13 -117 8
-142 11 -13 24 -23 29 -23 5 0 12 -6 15 -14 3 -8 16 -16 29 -18 29 -4 36 -52
15 -100 -49 -112 -47 -146 14 -177 22 -12 46 -21 54 -21 8 0 22 -11 31 -25 23
-35 12 -70 -26 -83 -23 -9 -30 -17 -30 -38 0 -45 -64 -133 -98 -134 -7 0 -19
-15 -28 -33 -15 -31 -15 -36 0 -65 11 -21 24 -32 38 -32 30 0 88 -41 88 -62 0
-14 -9 -17 -48 -16 -27 1 -54 -2 -60 -6 -7 -4 -12 -27 -12 -51 0 -36 5 -48 30
-68 34 -29 37 -44 15 -73 -21 -28 -18 -44 15 -88 33 -44 37 -64 15 -72 -26
-10 -16 -44 26 -92 22 -26 43 -59 46 -74 3 -14 11 -29 19 -32 22 -9 16 -29
-16 -56 -22 -18 -30 -33 -30 -56 0 -17 -7 -37 -15 -44 -9 -7 -15 -29 -15 -54
0 -71 -29 -168 -57 -198 -24 -25 -34 -28 -88 -28 l-61 0 -13 -46 c-10 -35 -11
-51 -2 -70 15 -34 14 -76 -4 -100 -17 -22 -19 -56 -5 -70 7 -7 3 -24 -15 -55
-18 -32 -25 -59 -25 -97 0 -48 -3 -54 -27 -65 -58 -25 -67 -41 -68 -125 -2
-91 -20 -146 -55 -164 -39 -19 -84 -59 -92 -79 -4 -11 -17 -19 -28 -19 -27 0
-39 -34 -33 -94 5 -39 2 -50 -11 -58 -9 -5 -16 -15 -16 -22 0 -8 -7 -19 -15
-26 -23 -19 -17 -42 15 -70 17 -13 30 -34 30 -46 0 -12 7 -27 15 -34 8 -7 15
-21 15 -31 0 -16 8 -19 44 -19 26 0 48 6 56 15 8 10 31 15 64 15 29 0 59 7 70
15 11 8 34 15 52 15 17 0 37 7 44 15 7 8 19 15 26 15 8 0 14 4 14 10 0 5 16
25 35 45 38 37 69 45 79 20 4 -12 23 -15 85 -15 109 0 174 -37 138 -79 -8 -9
-17 -28 -21 -43 -6 -26 -4 -28 24 -28 16 0 30 -4 30 -8 0 -5 9 -19 20 -32 11
-13 20 -29 20 -37 0 -18 35 -17 50 2 7 8 24 15 39 15 36 -1 60 -37 58 -88 0
-23 2 -45 7 -49 7 -7 31 17 38 38 2 5 18 11 36 15 24 5 32 3 32 -7 0 -8 16
-31 35 -52 28 -31 37 -36 53 -28 25 13 33 5 67 -63 16 -32 34 -60 40 -61 5 -2
22 -6 36 -9 14 -3 46 -24 71 -46 48 -42 68 -50 68 -27 0 21 34 47 60 47 13 0
31 7 41 16 26 24 39 9 39 -47 0 -52 19 -68 39 -31 5 10 28 31 50 47 23 15 41
34 41 42 0 22 42 63 65 63 22 0 55 32 55 54 0 7 7 19 15 26 10 8 15 31 15 70
0 62 7 73 55 84 17 4 38 15 48 24 15 14 20 14 27 2 7 -12 11 -12 25 0 10 8 21
25 26 38 8 21 13 23 48 17 24 -4 42 -2 46 4 3 6 17 11 29 11 13 0 29 7 36 15
12 14 15 14 30 0 9 -8 21 -15 27 -15 19 0 103 -82 103 -100 0 -10 8 -21 18
-24 68 -26 162 -95 162 -120 0 -11 7 -30 15 -40 9 -12 15 -42 15 -77 0 -41 4
-58 15 -63 9 -3 15 -18 15 -35 0 -22 8 -35 25 -47 14 -9 25 -24 25 -33 0 -20
40 -61 59 -61 7 0 25 -9 39 -21 26 -20 27 -24 28 -132 2 -101 4 -117 29 -162
24 -45 26 -57 20 -112 -6 -53 -10 -63 -26 -63 -12 0 -21 -9 -25 -25 -3 -14
-10 -25 -15 -25 -5 0 -9 -11 -9 -25 0 -19 -17 -37 -76 -81 -41 -31 -78 -63
-82 -72 -3 -10 -16 -28 -29 -42 -13 -14 -23 -35 -23 -47 0 -12 -14 -36 -30
-53 -17 -17 -30 -37 -30 -44 0 -8 -7 -19 -15 -26 -21 -18 -21 -135 0 -144 20
-7 21 -115 0 -142 -8 -10 -15 -26 -15 -35 0 -9 -7 -22 -16 -30 -15 -12 -14
-57 2 -154 14 -78 36 -115 72 -115 9 0 27 -11 39 -24 19 -20 23 -35 23 -93 0
-60 -4 -75 -28 -109 -45 -64 -66 -142 -59 -223 5 -60 3 -74 -14 -95 -10 -13
-19 -38 -19 -54 0 -16 -7 -35 -15 -42 -8 -7 -15 -20 -15 -30 0 -10 -7 -23 -15
-30 -10 -8 -15 -30 -15 -61 0 -42 3 -49 19 -49 11 0 23 -4 26 -10 3 -5 15 -10
25 -10 10 0 25 -7 34 -15 8 -8 27 -15 43 -15 38 0 52 -11 62 -46 9 -37 72 -72
145 -80 47 -6 55 -4 75 17 21 23 22 23 54 6 17 -9 54 -18 82 -19 49 -3 50 -3
67 -51 18 -48 18 -48 -7 -96 -45 -91 -69 -173 -70 -243 0 -40 -5 -72 -12 -79
-7 -7 -13 -30 -13 -50 0 -32 6 -43 44 -73 37 -31 50 -36 95 -36 28 0 51 4 51
8 0 4 22 24 50 45 40 30 58 37 94 37 31 0 48 -5 54 -16 14 -25 66 -15 70 14 2
13 10 26 18 29 8 3 14 11 14 18 0 8 12 15 27 17 35 4 46 47 27 96 -19 46 4 82
51 82 30 0 33 3 41 43 7 33 14 42 30 42 25 1 124 97 124 122 0 23 54 55 69 40
12 -12 50 28 51 55 0 9 9 20 20 23 11 3 20 11 20 16 0 14 30 11 34 -3 3 -7 7
-25 10 -40 7 -32 38 -37 70 -13 11 8 41 15 67 15 l46 0 6 40 c7 57 -8 104 -38
118 -22 10 -25 18 -25 59 -1 40 -6 53 -30 77 -23 22 -30 38 -30 67 0 20 -2 43
-5 51 -3 7 1 22 8 33 14 18 15 18 53 -4 35 -21 39 -22 50 -6 7 10 32 38 56 63
23 25 51 61 61 80 10 19 25 42 33 49 8 8 14 34 14 61 0 43 3 48 31 61 17 7 43
11 60 7 29 -5 29 -5 29 44 0 27 5 52 11 55 5 4 14 18 19 31 5 13 21 29 35 34
15 6 25 17 25 29 0 11 4 22 9 25 5 3 12 22 16 42 6 36 15 51 46 81 9 8 14 23
12 33 -6 23 29 100 57 125 12 11 28 34 35 52 13 31 17 33 61 33 31 0 54 6 67
17 18 17 19 17 32 0 6 -9 19 -17 27 -17 9 0 21 -7 28 -15 18 -21 28 -19 62 15
28 28 36 31 86 28 40 -2 57 -8 63 -20 5 -10 13 -26 17 -35 5 -9 15 -20 23 -24
38 -18 118 -39 152 -39 32 0 37 3 37 23 0 44 20 57 100 65 64 6 75 10 78 27 2
11 9 25 15 30 7 6 17 19 23 30 6 10 19 23 29 29 25 14 54 48 55 62 0 6 7 17
15 24 8 7 15 23 15 37 0 13 7 26 15 29 8 4 15 14 15 24 0 28 25 43 40 25 15
-18 50 -20 50 -2 0 6 12 21 27 31 25 19 27 19 79 1 30 -10 56 -16 57 -14 13
15 34 69 27 69 -10 0 -24 49 -21 70 2 8 18 28 36 46 18 17 35 42 37 55 2 17
10 25 29 27 15 2 37 14 50 28 23 25 48 31 64 15 19 -18 84 -17 98 3 9 12 23
17 42 14 26 -3 31 -8 39 -45 6 -24 15 -43 22 -43 6 0 17 -6 23 -14 10 -12 16
-12 41 1 47 23 90 71 90 101 0 16 12 40 30 59 17 18 30 41 30 52 0 11 6 26 13
33 17 18 40 69 43 92 2 26 20 34 68 29 30 -4 45 -1 55 11 17 20 47 21 55 1 3
-8 15 -15 26 -15 11 0 29 -6 40 -13 14 -8 23 -9 28 -2 15 22 91 75 106 75 9 0
16 7 16 15 0 27 42 75 66 75 12 0 24 7 28 15 3 10 19 15 44 15 22 0 45 6 51
14 22 26 69 27 114 3 23 -12 43 -25 45 -29 6 -13 42 16 42 33 0 9 7 22 15 29
8 7 15 22 15 34 0 11 7 30 15 40 8 11 15 35 15 53 0 27 4 33 20 33 11 0 23 -7
26 -15 8 -19 35 -19 60 0 25 19 78 19 94 0 9 -10 32 -15 74 -15 34 -1 72 -7
86 -15 39 -22 69 -18 112 16 l39 32 -28 20 c-38 27 -63 84 -63 144 0 36 -4 53
-15 57 -20 7 -20 82 0 102 8 9 15 24 15 34 0 10 5 22 11 25 5 4 15 18 20 32 5
14 18 27 29 30 11 3 20 11 20 17 0 12 -35 46 -48 46 -16 0 -92 62 -92 75 0 8
-6 18 -12 22 -7 4 -23 26 -34 48 -12 22 -30 41 -40 43 -11 2 -30 11 -44 22
-24 18 -24 20 -11 52 8 18 15 49 15 68 0 59 -36 176 -69 219 -5 8 -11 57 -12
110 -1 53 -2 101 -2 107 -1 6 -14 14 -31 18 -24 4 -30 11 -30 31 0 25 -31 65
-50 65 -15 0 -11 83 5 104 8 11 15 29 15 39 0 20 35 65 118 149 46 48 47 48
113 48 47 0 70 4 79 15 7 9 29 15 52 15 51 0 97 34 127 96 19 37 22 55 17 95
-8 62 20 126 73 167 20 15 50 41 67 59 30 30 36 32 110 35 l79 3 0 30 c0 39
11 55 37 55 19 0 91 50 114 79 8 10 29 14 69 13 37 -1 65 4 78 13 12 8 29 15
38 15 9 0 20 10 23 23 12 41 106 84 106 47 0 -5 18 -13 40 -16 24 -4 45 -14
50 -24 14 -26 86 -60 127 -60 37 0 83 -36 83 -64 0 -8 7 -19 15 -26 19 -16 19
-39 0 -46 -8 -4 -15 -13 -15 -20 0 -8 -7 -26 -16 -40 -15 -21 -15 -30 -4 -63
16 -48 8 -61 -34 -61 -19 0 -39 -7 -46 -15 -7 -8 -18 -15 -24 -15 -19 0 -45
-70 -52 -139 -4 -38 -12 -65 -21 -68 -29 -11 -14 -51 32 -84 37 -27 45 -38 45
-65 0 -25 11 -43 51 -83 28 -28 55 -51 60 -51 10 0 12 -63 2 -74 -11 -11 -12
-100 -1 -114 6 -7 11 -38 12 -70 1 -44 7 -65 26 -92 14 -19 30 -42 35 -51 6
-10 28 -38 49 -64 37 -43 39 -48 30 -83 -8 -30 -6 -44 9 -71 13 -24 15 -37 8
-44 -6 -6 -11 -39 -11 -74 0 -48 3 -63 15 -63 8 0 31 -12 52 -26 21 -14 48
-30 61 -35 12 -5 22 -13 22 -19 0 -5 11 -10 25 -10 14 0 28 -7 31 -15 4 -10
21 -15 54 -15 30 0 52 -6 60 -15 7 -8 18 -15 26 -15 7 0 20 -7 29 -16 15 -15
17 -15 34 0 22 20 60 21 67 1 4 -8 15 -15 25 -15 10 0 28 -9 40 -21 14 -14 28
-19 42 -15 12 3 34 6 50 6 16 0 27 5 27 13 0 22 34 47 63 47 18 0 41 16 76 51
28 29 51 56 51 60 0 5 16 9 36 9 25 0 44 8 67 30 18 16 41 30 53 30 11 0 25 5
32 12 8 8 15 8 26 -1 12 -10 19 -9 38 2 13 8 57 17 98 20 41 3 103 11 138 18
50 10 67 11 80 1 9 -7 27 -16 39 -21 11 -6 24 -15 28 -20 3 -6 26 -20 50 -31
24 -11 47 -24 50 -30 3 -5 26 -10 50 -10 25 0 50 -6 59 -15 10 -11 36 -15 90
-15 57 0 85 -5 116 -21 22 -12 43 -25 46 -30 3 -5 33 -9 67 -9 35 -1 73 -7 87
-15 14 -8 46 -14 71 -15 29 0 51 -6 59 -15 7 -8 23 -15 35 -15 13 0 25 -7 29
-15 3 -8 14 -15 24 -15 11 0 25 -6 32 -14 6 -8 28 -16 48 -18 29 -2 40 -9 50
-30 8 -17 21 -28 33 -28 14 0 21 -9 25 -30 5 -21 12 -30 26 -30 21 0 53 -31
68 -68 5 -12 17 -22 27 -22 10 0 26 -14 35 -30 9 -17 24 -30 31 -30 8 0 17 -7
21 -15 3 -8 16 -15 30 -15 16 0 27 -7 31 -20 3 -11 10 -20 15 -20 5 0 10 -10
12 -22 2 -13 11 -24 23 -27 11 -2 24 -9 28 -17 11 -20 47 -17 63 4 7 9 14 31
14 47 0 17 7 41 15 55 8 14 14 39 15 56 0 16 7 39 15 50 8 10 15 33 15 50 0
17 7 48 15 67 8 20 15 61 15 90 0 30 7 76 15 103 8 27 15 72 15 100 0 28 7 73
15 100 8 27 15 72 15 99 0 28 7 72 15 99 8 27 15 72 15 101 0 29 7 74 15 101
8 27 15 72 15 100 0 28 7 73 15 100 8 27 15 72 15 100 0 28 7 71 15 94 8 23
15 68 15 100 0 31 7 79 15 106 8 27 15 72 15 100 0 28 7 73 15 100 8 27 15 72
15 100 0 28 7 73 15 100 8 27 15 74 15 104 1 30 7 73 15 95 8 22 15 65 15 96
0 31 7 76 15 99 8 23 15 66 15 95 0 28 7 74 15 101 8 27 15 74 15 105 0 31 7
78 15 105 8 27 15 74 15 104 0 30 7 77 15 104 8 27 15 72 15 101 0 29 7 74 15
101 8 27 15 74 15 105 0 30 7 76 16 102 8 25 14 58 12 74 -3 25 -6 28 -37 25
-24 -2 -40 4 -53 18 -31 33 -51 26 -82 -30 -11 -19 -24 -43 -30 -52 -8 -14 -6
-21 8 -31 14 -10 17 -21 12 -44 -4 -17 -14 -34 -22 -37 -8 -3 -14 -16 -14 -28
0 -13 -11 -33 -25 -46 -34 -33 -58 -83 -45 -96 21 -21 10 -54 -26 -81 -20 -15
-42 -43 -50 -61 -8 -19 -16 -34 -18 -34 -22 0 -58 25 -66 45 -7 19 -17 25 -39
25 -16 0 -31 -6 -35 -15 -3 -8 -16 -15 -29 -15 -14 0 -30 -7 -37 -15 -7 -8
-20 -15 -30 -15 -10 0 -20 -7 -24 -15 -7 -20 -65 -20 -72 0 -4 8 -14 15 -23
15 -10 0 -26 7 -37 15 -10 8 -35 15 -55 15 -19 0 -44 7 -55 15 -10 8 -26 15
-35 15 -9 0 -30 7 -45 15 -16 8 -36 15 -44 15 -9 0 -23 9 -33 20 -20 24 -61
26 -101 5 -32 -17 -46 -12 -46 15 0 10 -6 23 -13 27 -21 13 -47 61 -47 85 0
13 7 32 15 42 8 11 15 31 15 44 0 13 14 41 30 62 37 46 38 79 4 104 -22 15
-43 19 -116 18 -69 -1 -90 2 -95 14 -4 10 -22 14 -67 14 l-63 0 -56 -60 c-30
-33 -58 -60 -61 -60 -2 0 -19 13 -37 29 -18 17 -46 31 -63 33 -33 3 -34 6 -20
77 5 26 3 36 -10 43 -10 6 -16 22 -16 48 0 21 -4 42 -10 45 -5 3 -10 14 -10
24 0 28 -73 120 -95 121 -11 0 -31 14 -45 30 -14 17 -34 30 -45 30 -11 0 -29
7 -39 15 -11 8 -39 15 -62 15 -26 0 -57 9 -78 21 -33 19 -36 25 -36 65 0 30 5
46 15 50 27 11 18 66 -15 94 -22 17 -30 33 -30 55 0 35 -22 59 -82 90 -34 17
-38 24 -38 57 0 27 -9 51 -30 80 -16 22 -30 49 -30 60 0 16 -9 18 -103 18
-101 0 -104 1 -137 30 -38 34 -98 41 -120 15 -16 -19 -39 -19 -46 0 -4 9 -25
24 -48 35 -41 18 -41 18 -63 -2 -21 -20 -24 -20 -41 -5 -25 23 -32 22 -72 -13
-24 -20 -46 -29 -70 -30 -19 0 -44 -7 -54 -15 -47 -35 -87 -14 -106 54 -5 22
-11 25 -41 23 -47 -4 -79 38 -79 103 0 31 -5 47 -15 51 -25 10 -21 143 6 188
11 19 28 38 37 41 19 6 62 75 62 99 0 9 4 16 9 16 5 0 14 14 20 30 5 16 15 30
20 30 6 0 11 7 11 15 0 8 4 15 9 15 5 0 12 12 15 26 4 15 20 38 37 53 36 32
36 42 -1 71 -23 17 -30 31 -30 56 0 18 -6 37 -14 41 -8 4 -17 24 -21 44 -5 30
-2 40 21 67 16 18 38 32 51 32 12 0 25 5 28 10 3 6 20 10 36 10 36 0 109 69
109 103 0 12 9 33 19 46 16 21 18 37 14 105 -5 72 -9 84 -34 111 -16 17 -29
38 -29 46 0 8 -7 24 -15 35 -19 25 -19 48 1 65 12 10 15 24 11 60 -4 30 -1 55
9 74 8 15 14 33 14 41 0 7 16 28 35 47 41 40 42 46 13 72 -23 19 -57 21 -140
9 -34 -5 -39 -3 -47 19 -5 14 -16 27 -23 29 -10 4 -11 11 -2 34 7 20 7 37 1
52 -8 17 -6 27 8 42 24 27 14 44 -46 81 -43 27 -50 35 -45 55 19 75 19 77 2
86 -17 10 -22 48 -6 48 6 0 15 10 20 23 6 12 15 29 21 38 17 22 3 69 -19 69
-34 0 -62 53 -62 119 0 43 -4 60 -15 65 -11 4 -15 21 -15 59 0 56 -20 90 -66
115 -11 6 -28 28 -39 49 -17 35 -22 38 -62 39 -24 0 -51 8 -61 17 -12 11 -34
15 -78 14 -59 -2 -63 -1 -101 38 -49 49 -57 77 -32 109 22 28 28 132 11 187
-38 119 -43 142 -33 152 6 6 11 17 11 25 0 8 9 26 21 40 40 51 2 132 -61 132
-17 0 -44 7 -60 15 -18 9 -31 11 -35 5 -10 -16 -19 -12 -51 18 -54 52 -120 74
-171 57 -17 -5 -24 -3 -30 11 -13 37 -47 74 -67 74 -12 0 -36 9 -53 20 -27 16
-33 26 -33 54 0 18 -7 39 -16 47 -12 10 -14 23 -10 51 9 53 -16 51 -77 -8
l-47 -47 -36 37 c-24 25 -44 36 -64 36 -36 0 -50 23 -50 84 0 56 -22 86 -65
86 -21 0 -37 -9 -54 -30 -13 -17 -29 -30 -36 -30 -18 0 -45 56 -45 92 0 25 -3
28 -34 28 -18 0 -39 -7 -46 -15 -16 -20 -35 -19 -73 3 -44 25 -78 54 -88 77
-5 11 -13 27 -18 35 -27 48 -41 125 -41 229 l0 110 -45 45 c-25 25 -45 52 -45
61 0 9 -6 18 -14 21 -18 7 -56 -12 -56 -28 0 -6 -19 -28 -42 -49 -33 -30 -51
-39 -79 -39 -20 0 -42 -7 -49 -15 -7 -8 -18 -15 -25 -15 -7 0 -18 -7 -25 -15
-7 -8 -20 -15 -29 -15 -17 0 -81 -64 -81 -81 0 -5 -19 -9 -42 -9 -27 0 -49 -7
-62 -19 -33 -30 -127 -63 -143 -50 -7 7 -13 17 -13 24 0 7 -11 16 -25 19 -63
16 -111 -29 -100 -94 4 -22 11 -40 16 -40 5 0 9 -26 9 -57 0 -38 5 -62 16 -75
24 -26 23 -297 -1 -310 -8 -5 -15 -20 -15 -33 0 -22 -5 -25 -33 -25 -18 0 -42
7 -53 15 -25 19 -48 19 -64 0 -7 -8 -20 -15 -29 -15 -25 0 -81 -53 -81 -77 0
-37 -24 -47 -75 -31 -38 13 -47 13 -56 2 -6 -8 -22 -14 -35 -14 -14 0 -24 -6
-24 -14 0 -8 -3 -16 -7 -18 -11 -4 -41 -67 -49 -101 -3 -15 -10 -30 -15 -33
-5 -3 -9 -16 -9 -30 0 -13 -4 -32 -9 -42 -5 -9 -15 -32 -21 -49 -7 -18 -16
-34 -21 -34 -20 -3 -25 -5 -49 -20 -14 -9 -48 -17 -77 -18 -63 -2 -77 14 -63
74 11 49 7 55 -34 55 -38 0 -102 55 -108 92 -3 21 -8 23 -51 20 -32 -2 -57 2
-73 12 -13 9 -34 16 -46 16 -27 0 -68 26 -68 43 0 7 -14 25 -30 41 -17 16 -30
37 -30 47 0 9 -7 19 -15 23 -8 3 -15 16 -15 30 0 15 -6 26 -17 28 -16 3 -18
14 -15 103 4 127 1 131 -100 139 -77 7 -101 -1 -73 -24 19 -16 19 -74 0 -90
-8 -7 -15 -20 -15 -29 0 -9 -7 -25 -15 -35 -9 -11 -15 -41 -15 -69 0 -44 -2
-48 -22 -45 -15 2 -24 11 -26 25 -2 12 -10 27 -18 33 -8 7 -14 21 -14 31 0 11
-5 19 -12 19 -6 0 -20 8 -30 17 -18 16 -21 16 -49 -1 -34 -20 -31 -21 -102 45
-27 26 -73 52 -110 63 -9 3 -20 14 -23 23 -3 10 -10 25 -15 33 -5 8 -20 39
-35 68 -14 29 -37 66 -51 82 -23 27 -30 30 -87 30 -66 0 -87 -13 -146 -87 -24
-30 -40 -37 -85 -34 -32 2 -64 59 -58 104 3 20 9 37 14 37 4 0 11 23 15 50 4
28 11 53 15 56 5 3 9 25 9 49 0 24 6 50 13 57 7 7 16 21 20 31 8 21 -8 67 -23
67 -6 0 -34 23 -62 52 -45 46 -56 52 -105 59 -30 4 -63 15 -72 23 -10 9 -26
16 -37 16 -10 0 -40 18 -66 41 -39 33 -48 47 -48 73 0 18 -7 41 -15 52 -8 10
-15 40 -15 66 0 28 -6 53 -15 62 -8 8 -15 25 -15 37 0 12 -8 28 -17 34 -17 13
-17 14 0 32 9 11 17 27 17 35 0 9 7 22 16 29 11 9 14 23 11 46 -5 28 0 39 39
82 26 28 57 52 74 56 31 7 40 26 40 91 0 25 6 47 15 54 8 7 15 19 15 28 0 8 7
23 16 33 15 16 14 20 -3 43 -20 27 -73 56 -104 56 -11 0 -22 7 -25 15 -3 8
-15 17 -25 20 -18 6 -19 12 -13 53 4 26 20 66 35 90 16 24 29 50 29 58 0 8 7
17 15 20 24 9 20 70 -5 77 -13 3 -20 14 -20 31 0 16 -15 41 -40 67 -22 23 -40
48 -40 56 0 7 -7 16 -15 19 -32 13 -4 84 33 84 18 0 15 65 -4 81 -12 9 -20 10
-33 2 -27 -17 -38 -3 -46 55 -4 30 -12 52 -19 52 -20 0 -126 109 -126 130 0
24 -38 28 -46 5z m34 -57 c2 -18 11 -28 28 -32 13 -4 24 -11 24 -16 0 -5 11
-21 25 -36 14 -15 25 -36 25 -47 0 -11 5 -37 11 -58 10 -32 14 -36 30 -26 13
8 21 8 32 -1 18 -15 11 -50 -15 -75 -14 -14 -16 -22 -8 -37 6 -10 15 -22 20
-25 6 -3 10 -19 10 -36 0 -19 5 -29 15 -29 8 0 15 -5 15 -10 0 -6 11 -15 25
-20 19 -7 25 -17 25 -40 0 -18 8 -37 20 -47 23 -20 27 -68 7 -80 -8 -4 -17
-15 -20 -23 -11 -23 -31 -54 -44 -65 -6 -5 -12 -35 -14 -65 -4 -92 -2 -100 26
-100 13 0 28 -6 32 -14 4 -8 25 -16 46 -18 30 -2 42 -9 55 -32 13 -22 14 -30
5 -33 -7 -3 -13 -15 -13 -28 0 -12 -7 -28 -15 -35 -9 -7 -15 -29 -15 -51 0
-33 -4 -40 -26 -45 -14 -4 -29 -17 -34 -30 -5 -12 -25 -30 -45 -40 -19 -9 -38
-21 -42 -27 -3 -5 -5 -38 -4 -74 1 -49 -2 -65 -14 -69 -8 -3 -15 -12 -15 -19
0 -7 -7 -15 -15 -19 -24 -9 -17 -49 15 -80 25 -24 30 -38 30 -75 0 -25 7 -55
15 -65 8 -11 15 -36 15 -57 0 -20 7 -42 15 -49 8 -7 15 -18 15 -25 0 -16 63
-65 83 -65 8 0 20 -7 27 -15 7 -8 20 -15 30 -15 10 0 23 -7 30 -15 8 -9 30
-15 58 -15 36 0 52 -6 74 -27 15 -15 28 -32 28 -39 0 -7 10 -16 23 -20 12 -4
25 -12 29 -18 13 -19 9 -56 -7 -62 -11 -5 -15 -22 -15 -63 0 -35 -6 -65 -15
-77 -8 -10 -15 -29 -15 -42 0 -12 -7 -25 -15 -28 -11 -5 -15 -22 -15 -63 0
-50 4 -60 36 -95 30 -32 42 -39 71 -38 47 2 73 11 73 25 1 14 69 87 99 105 46
27 131 2 131 -38 0 -10 7 -23 15 -30 8 -7 15 -20 15 -30 0 -9 9 -25 20 -35 11
-10 20 -25 20 -34 1 -18 55 -81 70 -81 17 0 62 -32 90 -62 13 -16 32 -28 41
-28 9 0 22 -7 29 -15 7 -8 18 -15 25 -15 7 0 15 7 19 15 10 28 41 16 61 -22
20 -39 69 -93 85 -93 5 0 20 5 33 11 22 10 24 17 26 82 1 46 7 77 16 87 8 9
15 22 15 28 0 27 43 82 63 82 44 0 49 -12 49 -118 0 -74 4 -104 14 -113 8 -6
14 -22 14 -35 0 -16 8 -28 23 -33 21 -9 67 -62 67 -79 0 -4 14 -23 31 -40 23
-23 40 -32 64 -32 19 0 40 -6 48 -14 8 -8 38 -16 68 -18 51 -3 54 -5 59 -32 4
-22 15 -34 45 -48 22 -11 47 -23 55 -27 10 -6 16 -27 18 -70 l3 -61 70 0 c55
0 71 -3 76 -16 4 -10 -1 -22 -10 -29 -12 -8 -17 -27 -17 -56 0 -39 6 -50 46
-91 26 -27 54 -48 63 -48 22 0 41 -19 41 -42 0 -11 7 -18 18 -18 10 0 30 -13
45 -28 38 -40 36 -79 -7 -121 -21 -20 -32 -39 -29 -50 2 -10 -3 -23 -11 -30
-9 -8 -16 -22 -16 -32 0 -10 -5 -21 -11 -24 -5 -4 -8 -19 -4 -34 9 -43 -20
-89 -63 -101 -21 -5 -53 -25 -72 -45 -19 -19 -38 -35 -43 -35 -6 0 -16 -8 -23
-17 -10 -15 -26 -18 -96 -15 -59 2 -86 7 -94 17 -16 21 -132 21 -140 0 -8 -20
-24 -19 -40 3 -12 16 -14 16 -28 -3 -8 -11 -16 -27 -16 -35 0 -8 -7 -24 -15
-34 -26 -34 -18 -69 21 -104 20 -18 44 -32 54 -32 23 0 90 -38 90 -51 0 -5 12
-9 28 -9 41 0 59 -15 43 -34 -8 -9 -20 -16 -27 -16 -20 0 -19 -165 1 -204 25
-47 19 -97 -15 -130 -36 -35 -80 -31 -80 8 0 13 -6 26 -14 29 -18 7 -26 -1
-26 -28 0 -13 -7 -28 -15 -35 -8 -7 -15 -19 -15 -27 0 -7 -6 -16 -14 -19 -18
-7 -16 -76 2 -82 17 -5 15 -39 -3 -46 -8 -3 -15 -12 -15 -19 0 -8 -7 -20 -15
-27 -10 -9 -14 -36 -14 -110 0 -55 4 -102 9 -105 7 -4 6 -13 0 -25 -5 -10 -10
-31 -10 -46 0 -52 -65 -89 -77 -44 -6 22 -14 24 -60 11 -22 -6 -43 -6 -64 2
-26 10 -32 9 -43 -6 -9 -11 -26 -17 -50 -17 -22 0 -36 -5 -36 -12 0 -7 -13
-22 -30 -33 -16 -11 -35 -33 -41 -50 -6 -16 -16 -40 -21 -52 -6 -11 -8 -26 -4
-31 3 -5 0 -15 -7 -21 -10 -7 -23 -6 -50 6 -29 13 -38 24 -43 50 -4 19 -15 38
-25 43 -30 17 -69 56 -69 71 0 8 -7 23 -15 33 -8 11 -15 27 -15 36 0 9 -13 29
-30 45 -20 19 -30 38 -30 58 0 22 -10 39 -37 63 -34 30 -40 32 -110 31 -75 0
-92 7 -93 41 0 8 -13 27 -30 43 -29 29 -30 47 -8 76 6 8 5 25 -3 48 -11 31
-11 37 1 45 12 8 12 14 -3 45 -15 31 -21 35 -40 29 -35 -13 -100 -5 -119 14
-27 27 -42 37 -61 45 -9 3 -22 18 -29 31 -11 25 -11 25 -40 8 -28 -16 -30 -16
-42 0 -7 10 -34 20 -65 24 -35 5 -54 12 -58 23 -11 38 -45 101 -54 101 -5 0
-9 10 -9 21 0 33 -63 89 -98 89 -17 0 -32 -6 -36 -15 -4 -11 -21 -15 -63 -15
-52 0 -61 3 -83 30 -28 34 -47 38 -66 13 -11 -15 -16 -16 -31 -5 -18 12 -36
20 -60 28 -18 5 -16 49 2 64 11 9 15 32 15 81 0 65 2 70 26 79 14 6 24 16 21
23 -2 6 -1 24 4 39 5 18 3 33 -7 45 -7 10 -14 33 -14 51 0 20 -5 32 -14 32 -8
0 -16 7 -20 15 -3 8 -15 15 -26 15 -11 0 -23 7 -26 15 -4 9 -20 15 -43 15 -36
1 -81 28 -81 49 0 6 -10 11 -23 11 -12 0 -33 7 -46 16 -21 15 -26 15 -54 1
-18 -9 -40 -18 -49 -21 -13 -4 -18 -16 -18 -40 0 -19 -6 -39 -14 -43 -7 -4
-21 -24 -31 -43 -37 -72 -86 -100 -115 -65 -7 8 -23 15 -35 15 -12 0 -28 -7
-35 -15 -20 -25 -68 -18 -96 13 -17 18 -27 23 -31 15 -2 -7 -15 -13 -27 -13
-12 0 -32 -7 -44 -16 -23 -16 -62 -11 -62 7 0 6 7 17 15 25 8 9 15 27 15 41 0
14 12 42 27 62 16 21 26 45 24 59 -4 32 16 52 50 52 56 0 88 59 55 100 -17 20
-15 172 2 178 7 2 12 8 12 13 0 6 9 30 20 55 14 31 27 44 40 44 12 0 24 10 30
24 5 13 12 25 17 27 4 2 15 24 24 49 14 40 15 48 1 68 -8 12 -22 22 -32 22
-10 0 -23 7 -30 15 -7 8 -18 15 -26 15 -38 0 -25 35 40 103 41 44 66 87 66
115 0 11 7 25 15 32 8 7 15 18 15 25 0 7 -7 18 -15 25 -27 22 -19 60 15 71 19
7 30 18 30 30 0 11 6 22 14 25 8 3 17 26 20 52 8 56 24 101 45 125 21 25 19
151 -3 176 -9 10 -16 25 -16 35 0 9 -7 19 -15 22 -8 4 -15 14 -15 24 0 10 -13
32 -30 50 -21 23 -30 42 -30 67 0 38 -25 93 -42 93 -27 0 -48 34 -48 77 0 30
-4 43 -14 43 -8 0 -16 7 -20 15 -4 12 -25 15 -104 14 -79 -1 -104 2 -126 16
-25 16 -28 16 -45 1 -9 -9 -24 -16 -32 -16 -8 0 -27 -14 -44 -31 -28 -28 -34
-30 -90 -28 -47 3 -67 9 -94 30 -18 15 -40 25 -47 22 -22 -8 -46 18 -39 41 4
12 8 62 10 111 2 105 17 145 74 202 23 22 41 47 41 56 0 8 7 20 15 27 8 7 15
27 15 45 0 28 8 39 55 74 30 22 60 41 68 41 18 0 77 53 77 70 0 7 -8 22 -17
32 -17 19 -16 20 7 38 23 18 24 20 13 92 -10 72 -5 103 20 120 7 4 6 12 -2 22
-17 21 -8 33 34 40 29 6 35 11 35 32 0 14 -5 34 -10 44 -7 13 -7 21 0 25 5 3
10 16 10 29 0 13 9 31 20 41 11 10 20 28 20 40 0 23 -32 57 -63 68 -28 10 -16
41 18 47 25 4 30 10 30 35 0 24 -5 31 -25 33 -33 5 -50 20 -66 57 -17 42 -3
55 62 55 36 0 55 -4 56 -12 0 -7 1 -20 2 -28 1 -8 12 -17 26 -18 14 -2 28 -10
33 -17 6 -11 13 -11 38 3 28 16 31 16 43 0 7 -10 21 -18 31 -18 10 0 27 -8 38
-17 17 -16 20 -16 30 -3 20 26 63 48 97 52 26 2 34 8 35 24 3 42 75 94 131 94
29 0 44 7 70 36 19 19 34 37 34 39 0 8 101 105 109 105 5 0 11 7 15 15 3 8 11
15 19 15 17 0 99 99 91 112 -8 13 17 39 35 36 9 -2 17 -15 19 -30z m-1235
-308 c14 -11 34 -20 45 -20 11 0 22 -7 26 -15 3 -10 19 -15 43 -15 35 0 40 -3
60 -46 13 -25 20 -50 17 -55 -9 -15 16 -49 37 -49 35 0 34 -29 -1 -58 l-32
-28 46 -39 c51 -44 56 -65 26 -110 -11 -16 -20 -44 -20 -62 0 -25 -6 -35 -27
-45 -16 -8 -27 -21 -25 -30 1 -8 -5 -21 -13 -28 -8 -7 -15 -23 -15 -36 0 -13
-7 -27 -16 -32 -16 -9 -16 -11 0 -33 9 -13 16 -33 16 -46 0 -12 5 -25 10 -28
18 -11 10 -50 -15 -77 -24 -26 -25 -29 -10 -51 22 -35 10 -57 -34 -58 -20 -1
-44 -2 -53 -3 -20 -1 -47 -34 -48 -58 0 -10 -8 -22 -17 -27 -10 -5 -26 -36
-36 -68 -15 -53 -83 -151 -119 -174 -6 -4 -10 -26 -10 -50 1 -24 -6 -54 -14
-67 -13 -20 -13 -25 1 -44 21 -31 19 -54 -10 -92 -30 -40 -31 -53 -5 -61 11
-3 20 -11 20 -16 0 -5 17 -9 39 -9 21 0 44 -6 50 -14 7 -8 27 -18 44 -22 18
-3 38 -11 44 -16 14 -12 111 18 129 39 6 7 16 13 22 13 5 0 12 7 16 15 3 9 18
15 40 15 21 0 36 -6 40 -15 4 -12 26 -15 105 -15 107 0 111 -2 111 -58 1 -29
21 -62 37 -62 20 0 41 -36 47 -82 4 -25 13 -51 20 -57 7 -6 25 -36 41 -67 16
-31 34 -58 42 -61 7 -3 13 -19 13 -35 0 -16 8 -43 18 -60 17 -29 17 -29 -15
-59 -30 -26 -33 -34 -33 -89 0 -62 -11 -89 -57 -140 -18 -19 -25 -22 -35 -12
-9 9 -17 7 -35 -10 l-22 -21 29 -37 c31 -39 38 -68 20 -86 -6 -6 -13 -24 -16
-40 -3 -16 -9 -31 -13 -34 -4 -3 -20 -22 -35 -42 -15 -20 -44 -45 -64 -56 -20
-10 -38 -24 -40 -31 -5 -15 64 -81 86 -81 21 -1 62 -34 62 -51 0 -36 -35 -87
-70 -103 -28 -12 -39 -24 -43 -46 -4 -16 -18 -47 -32 -70 -26 -41 -32 -74 -15
-85 18 -11 11 -52 -10 -58 -27 -7 -25 -30 4 -62 31 -34 24 -52 -25 -65 -44
-12 -69 -42 -69 -83 0 -15 -7 -30 -15 -33 -9 -4 -15 -19 -15 -35 0 -23 -16
-45 -75 -104 l-75 -76 -2 -62 c0 -39 -6 -68 -16 -80 -12 -13 -13 -22 -4 -42 7
-15 8 -27 2 -30 -6 -4 -10 -24 -10 -46 0 -32 -6 -45 -37 -74 -20 -19 -33 -35
-29 -35 5 0 1 -12 -9 -26 -12 -18 -15 -36 -10 -58 8 -36 7 -48 -3 -181 -8
-108 -28 -154 -67 -155 -11 0 -28 -8 -36 -17 -9 -10 -24 -22 -33 -28 -13 -8
-18 -24 -18 -70 -1 -33 -6 -66 -11 -72 -6 -8 -5 -23 1 -40 6 -19 6 -37 -1 -53
-15 -36 -19 -138 -6 -162 7 -14 7 -23 -2 -34 -16 -20 -13 -147 6 -209 8 -28
15 -65 15 -83 0 -18 5 -42 11 -53 7 -14 7 -30 0 -52 -6 -18 -12 -65 -13 -106
-1 -59 2 -75 15 -83 17 -9 23 -60 11 -92 -9 -24 -95 -22 -114 2 -30 37 -48 88
-47 135 0 26 -2 49 -5 52 -2 3 -47 6 -99 6 -57 1 -100 7 -109 14 -8 7 -41 15
-73 18 -32 3 -65 11 -73 17 -8 8 -28 10 -51 6 -48 -9 -71 -9 -109 -1 -21 5
-34 2 -43 -9 -8 -9 -20 -16 -29 -16 -8 0 -24 -7 -33 -16 -13 -12 -38 -17 -82
-17 -58 -1 -69 3 -105 31 -22 18 -47 32 -55 32 -8 0 -20 7 -27 15 -7 8 -29 15
-50 15 -24 0 -40 5 -44 15 -7 20 -70 20 -86 0 -9 -10 -17 -12 -23 -6 -12 12
-43 -4 -78 -41 -52 -56 -106 -15 -75 55 8 18 17 41 20 52 3 11 17 32 30 46 13
14 27 40 31 57 3 18 11 34 16 37 15 10 11 130 -6 161 -8 16 -15 34 -15 39 0 6
23 45 50 87 l50 77 -6 86 c-4 47 -11 88 -16 91 -4 3 -8 14 -8 24 0 11 -9 24
-20 30 -11 6 -20 21 -20 34 0 13 -7 26 -15 30 -10 4 -15 19 -15 49 0 44 2 47
68 122 16 18 25 39 23 53 -1 13 5 34 13 47 17 27 22 105 6 105 -5 0 -13 12
-16 27 -11 41 -35 63 -70 63 -44 0 -62 23 -35 46 17 15 19 25 14 80 -6 60 -5
64 26 94 35 36 37 42 16 73 -9 15 -14 47 -13 102 1 44 -4 89 -10 100 -37 64
-52 137 -32 150 5 3 10 14 10 23 0 19 51 72 69 72 19 0 51 39 51 63 1 12 7 33
15 47 8 14 14 46 15 71 0 37 5 51 30 75 22 22 30 38 30 67 0 35 1 37 34 37 18
0 39 7 46 15 7 8 19 15 26 15 8 0 14 5 14 12 0 6 8 20 17 30 21 24 21 73 -1
97 -12 13 -16 32 -14 58 3 32 7 38 28 41 14 2 40 10 58 18 31 14 32 17 32 72
0 46 -5 62 -24 83 -65 70 -55 102 33 97 41 -1 63 3 84 17 l29 18 -46 39 c-45
39 -46 41 -46 98 0 32 -4 61 -9 65 -5 3 -12 31 -16 63 -3 31 -10 65 -15 74 -5
9 -13 36 -16 60 -4 24 -14 48 -23 55 -12 9 -13 17 -6 40 9 25 16 28 60 31 47
3 54 7 113 68 54 57 62 70 62 104 0 29 -7 47 -30 72 -16 18 -30 39 -30 48 0 8
-7 24 -15 34 -19 26 -19 70 0 86 10 8 15 31 15 67 0 38 4 55 15 59 12 5 15 24
15 83 0 77 9 101 39 101 21 0 81 60 81 81 0 9 -7 19 -15 23 -8 3 -15 12 -15
19 0 8 -7 20 -15 27 -10 8 -15 31 -15 72 0 43 4 60 15 64 8 4 15 18 15 34 0
15 7 33 15 40 11 9 15 34 15 100 0 66 -4 91 -15 100 -8 7 -15 18 -15 25 0 20
-73 39 -99 25 -27 -14 -51 1 -51 33 0 11 -6 28 -14 36 -8 9 -16 39 -18 66 -3
44 -1 50 18 53 11 2 27 -4 34 -13 16 -19 44 -19 60 0 7 9 14 38 15 66 1 36 8
56 23 71 20 20 24 21 49 7 15 -8 32 -20 36 -26 4 -7 25 -13 46 -13 25 0 41 -5
45 -15 3 -8 14 -15 25 -15 11 0 24 -7 29 -16 15 -26 60 -10 68 24 3 15 7 33
10 40 5 17 41 15 48 -3 3 -9 18 -15 36 -15 18 0 33 6 36 15 4 10 20 15 44 15
24 0 40 5 44 15 3 8 16 15 29 15 30 0 47 18 47 51 0 19 10 33 35 50 19 13 35
29 35 35 0 23 37 43 85 47 28 2 55 4 61 5 6 1 23 -7 37 -18z m-988 -249 c3 -5
1 -12 -5 -16 -5 -3 -10 1 -10 9 0 18 6 21 15 7z m5944 -1303 c50 -58 64 -94
51 -131 -14 -42 -12 -107 5 -137 8 -14 14 -44 15 -66 0 -24 6 -47 15 -54 8 -7
15 -19 15 -27 0 -8 23 -37 51 -66 l51 -52 77 2 c48 1 79 -3 83 -10 4 -7 8 -33
8 -59 0 -46 1 -48 28 -48 18 0 38 11 57 30 23 24 37 30 60 28 30 -3 30 -4 33
-68 3 -68 11 -80 53 -80 15 0 32 -7 39 -15 7 -8 17 -15 22 -15 5 0 22 -10 38
-21 l28 -22 46 22 c25 13 50 20 55 17 19 -12 19 -48 -1 -68 -23 -23 -17 -48
12 -48 12 0 31 -11 44 -25 13 -14 34 -25 49 -25 40 0 57 -10 57 -34 0 -28 43
-68 64 -60 9 3 16 10 16 15 0 15 57 10 70 -6 7 -8 20 -15 29 -15 10 0 30 -14
47 -31 21 -22 35 -29 54 -26 14 3 40 -1 59 -9 18 -8 40 -14 49 -14 17 0 62
-38 62 -53 0 -5 -14 -26 -30 -47 l-31 -39 2 -140 c2 -119 -1 -144 -14 -159
-10 -10 -17 -26 -17 -36 0 -9 -7 -19 -15 -22 -8 -4 -15 -15 -15 -26 0 -11 -18
-38 -40 -60 -28 -28 -40 -49 -40 -69 0 -38 -46 -84 -93 -93 -20 -4 -37 -11
-37 -16 0 -6 -4 -10 -10 -10 -8 0 -54 -39 -92 -78 -81 -84 -92 -104 -64 -115
8 -3 18 -26 21 -51 6 -40 4 -49 -20 -78 -30 -36 -115 -88 -143 -88 -10 0 -23
5 -29 11 -6 6 -49 10 -103 10 -82 -1 -95 -3 -111 -22 -11 -12 -19 -25 -19 -29
0 -11 -50 -31 -61 -24 -5 3 -22 -4 -38 -15 -37 -27 -42 -26 -75 4 -15 14 -32
25 -38 25 -18 0 -48 -32 -48 -50 0 -10 -7 -23 -15 -30 -8 -7 -15 -18 -15 -25
0 -7 -20 -31 -45 -53 -25 -22 -45 -44 -45 -50 0 -16 -71 -62 -96 -62 -12 0
-38 -18 -61 -42 -63 -68 -76 -72 -107 -37 -14 16 -26 33 -26 39 0 33 -95 -27
-186 -118 -18 -19 -29 -22 -53 -17 -20 4 -32 2 -38 -7 -14 -22 -61 -49 -68
-38 -3 6 -28 10 -54 10 -37 0 -54 6 -75 25 -30 28 -46 32 -46 11 0 -7 -7 -19
-15 -26 -8 -7 -15 -23 -15 -35 0 -13 -7 -25 -15 -29 -8 -3 -15 -12 -15 -21 0
-24 -41 -75 -61 -75 -17 0 -42 24 -45 44 -1 6 -22 33 -46 58 l-45 48 -36 -33
c-20 -17 -39 -45 -43 -62 -15 -66 -55 -74 -107 -20 -19 19 -41 35 -50 35 -9 0
-19 5 -22 10 -7 11 -88 50 -105 50 -6 0 -15 11 -20 25 -5 14 -14 25 -19 25 -6
0 -30 14 -54 30 -51 34 -60 36 -77 15 -7 -8 -27 -15 -46 -15 -35 0 -53 19 -58
63 -5 46 -17 57 -59 57 -23 0 -48 -7 -58 -16 -31 -28 -46 -11 -53 58 -7 66 -2
98 17 98 6 0 19 7 29 17 17 15 17 17 2 35 -10 10 -23 18 -29 18 -7 0 -18 7
-25 15 -7 8 -25 15 -40 15 -16 0 -30 7 -34 15 -3 8 -14 15 -24 15 -11 0 -25 7
-32 15 -7 8 -16 15 -21 15 -23 0 -50 42 -47 73 3 29 6 32 40 35 25 2 42 10 48
22 9 16 18 18 67 13 32 -3 65 -12 74 -19 10 -9 42 -14 95 -14 l80 0 59 60 c45
46 66 60 88 60 48 0 77 36 77 97 0 28 3 53 8 55 4 2 15 29 25 60 10 32 25 65
35 74 35 35 58 114 33 114 -5 0 -14 14 -20 30 -5 17 -17 30 -25 30 -9 0 -34
20 -57 45 -23 25 -50 45 -60 45 -11 0 -19 4 -19 8 0 5 -10 19 -22 31 -28 31
-32 108 -5 122 9 6 17 19 17 30 0 11 20 39 45 61 28 26 45 50 45 64 0 12 5 24
12 26 6 2 12 25 13 51 2 26 7 53 12 59 6 7 13 24 16 38 4 14 20 40 36 58 24
26 38 32 70 32 21 0 41 -5 43 -10 2 -6 17 -12 33 -13 22 -1 30 2 30 15 0 10 6
23 13 30 6 6 12 22 12 35 0 16 9 27 28 34 15 6 35 15 44 20 29 15 56 10 99
-16 35 -23 42 -24 54 -11 8 8 15 21 15 28 0 7 14 28 30 46 29 33 30 35 30 142
0 60 -4 111 -9 114 -5 4 -4 19 2 36 9 24 9 33 -1 39 -20 12 -42 60 -31 66 14
9 11 55 -6 71 -20 20 -20 98 0 114 12 10 19 8 40 -11 13 -13 25 -32 25 -42 0
-10 7 -20 15 -23 8 -4 15 -12 15 -20 0 -25 37 -16 44 11 4 17 19 30 46 41 22
9 40 22 40 30 0 7 13 20 30 29 23 12 34 13 53 4 21 -9 28 -8 46 10 12 12 21
29 21 39 0 20 61 62 91 62 12 0 27 7 33 16 8 10 30 17 59 19 39 2 52 8 69 31
12 16 25 31 29 34 3 3 11 15 18 28 17 31 29 28 70 -20z m1401 -1608 c0 -10 -7
-23 -16 -28 -14 -8 -14 -12 -1 -43 8 -19 24 -41 36 -49 11 -8 21 -22 21 -32 0
-11 7 -18 19 -18 10 0 24 -7 31 -15 9 -11 32 -15 80 -15 48 0 71 -4 80 -15 7
-8 27 -15 46 -15 24 0 34 -5 39 -20 3 -11 26 -34 51 -52 43 -30 44 -33 44 -85
0 -29 4 -53 9 -53 13 0 31 -54 45 -130 9 -56 15 -67 39 -78 20 -10 27 -20 27
-43 0 -17 -6 -32 -15 -35 -8 -4 -15 -12 -15 -20 0 -8 -6 -23 -12 -34 -10 -15
-10 -22 0 -32 7 -7 12 -40 12 -83 l0 -72 39 -12 c43 -13 61 -42 40 -67 -9 -11
-9 -18 -1 -26 15 -15 15 -51 1 -65 -9 -9 -8 -20 5 -45 32 -66 36 -68 112 -61
56 4 72 2 83 -10 11 -14 9 -20 -13 -40 -15 -14 -26 -35 -26 -49 0 -14 -7 -31
-15 -38 -10 -9 -15 -31 -15 -72 0 -33 -4 -68 -10 -78 -11 -21 18 -100 50 -135
10 -11 23 -47 28 -80 6 -33 13 -70 17 -83 6 -19 2 -24 -24 -33 -26 -9 -31 -16
-31 -45 0 -20 -8 -42 -19 -53 -10 -10 -20 -24 -23 -31 -2 -7 -28 -16 -58 -21
-59 -9 -94 -24 -122 -51 -23 -23 -25 -120 -3 -138 9 -7 15 -29 15 -51 0 -35 3
-39 25 -39 14 0 25 -2 25 -4 0 -2 3 -12 6 -20 5 -12 -2 -19 -25 -27 -27 -9
-31 -16 -31 -46 0 -24 -10 -47 -30 -73 -16 -21 -30 -45 -30 -53 0 -8 -7 -20
-15 -27 -8 -7 -15 -23 -15 -36 0 -13 -4 -24 -10 -24 -20 0 -78 -61 -83 -88 -3
-15 -11 -49 -18 -75 -10 -39 -10 -53 0 -69 10 -16 10 -23 0 -35 -11 -12 -32
-14 -118 -9 -139 7 -158 10 -167 19 -4 4 -18 7 -32 7 -27 0 -101 74 -102 101
0 9 -7 33 -15 52 -8 20 -15 47 -15 60 0 14 -7 30 -15 37 -8 7 -14 20 -13 28 4
22 -33 28 -44 8 -6 -10 -23 -16 -47 -16 -32 0 -43 -7 -74 -42 -31 -35 -43 -42
-68 -40 -18 1 -49 -7 -71 -18 -21 -11 -45 -20 -53 -20 -8 0 -15 -6 -15 -12 0
-7 -12 -21 -26 -32 l-26 -18 -41 38 c-23 22 -43 42 -45 47 -2 4 -25 7 -50 7
-39 1 -52 6 -76 30 -32 33 -54 38 -62 15 -4 -11 -21 -15 -59 -15 -34 0 -57 5
-65 15 -7 8 -22 15 -34 15 -41 1 -74 46 -117 157 -10 26 -12 27 -23 11 -7 -10
-20 -18 -28 -18 -8 0 -29 -7 -47 -16 -25 -13 -38 -14 -63 -5 -25 9 -36 8 -55
-4 -12 -9 -23 -20 -23 -25 0 -6 -18 -10 -39 -10 -33 0 -43 5 -61 30 -17 24
-29 30 -59 30 -21 0 -55 7 -74 15 -20 8 -50 15 -66 15 -32 0 -102 32 -121 56
-17 19 -6 42 25 54 15 6 25 17 25 30 0 23 25 68 48 87 12 10 13 15 2 28 -7 8
-19 15 -27 15 -7 0 -16 7 -19 15 -4 8 -14 15 -24 15 -20 0 -34 16 -36 40 -3
44 -5 50 -15 50 -6 0 -26 12 -45 27 -27 20 -34 32 -32 52 2 21 9 27 33 29 43
5 55 19 55 67 0 35 4 44 25 53 14 7 30 23 35 37 5 14 14 25 20 25 5 0 10 8 10
18 0 9 20 39 45 67 46 51 56 75 31 75 -8 0 -16 10 -18 22 -2 13 -14 25 -33 32
-16 6 -43 20 -58 30 -25 17 -28 24 -25 65 3 41 7 48 46 74 35 24 42 34 42 62
0 29 -4 34 -27 37 -23 2 -29 8 -31 35 -3 28 5 39 55 87 70 67 100 72 150 24
31 -30 34 -31 59 -17 15 7 29 20 32 29 7 21 54 70 67 70 27 0 98 51 151 110
33 36 65 69 72 73 6 4 12 18 12 29 0 22 26 58 42 58 5 0 24 -11 42 -25 37 -28
61 -32 70 -10 3 8 14 15 24 15 10 0 22 4 27 9 6 5 21 11 35 13 16 2 26 11 30
28 9 38 61 46 222 34 l78 -6 55 44 c30 23 55 45 55 49 0 3 9 17 20 29 23 27
20 72 -8 103 -13 15 -14 21 -4 35 7 9 16 26 21 37 9 21 63 65 81 65 5 0 10 5
10 11 0 16 42 48 64 49 10 0 35 14 56 30 21 17 43 30 49 30 6 0 11 17 11 39 0
22 6 44 15 51 8 7 15 18 15 25 0 6 9 20 20 30 11 10 20 24 20 32 0 7 6 16 14
19 8 3 17 16 20 30 8 29 26 32 26 4z m-5500 -350 c14 -16 31 -29 39 -30 29 0
116 -36 136 -55 37 -35 55 -73 55 -114 0 -32 -5 -43 -28 -59 -25 -19 -28 -26
-30 -93 -1 -39 -7 -78 -14 -87 -7 -8 -14 -26 -15 -41 -2 -14 -9 -36 -15 -49
-9 -17 -9 -25 1 -35 10 -9 14 -8 22 6 12 21 95 25 102 5 3 -10 9 -10 26 0 20
12 27 10 57 -13 24 -18 50 -27 93 -31 52 -5 62 -3 80 18 20 21 24 22 49 7 15
-8 29 -24 31 -34 2 -11 9 -24 17 -28 8 -4 14 -15 14 -24 0 -9 8 -25 17 -35 10
-11 17 -34 16 -53 l-1 -35 48 0 c40 0 54 -5 81 -31 29 -27 35 -29 60 -19 30
13 49 7 49 -16 0 -8 8 -14 18 -14 9 0 31 -13 48 -29 29 -27 76 -41 135 -41 25
0 27 -3 31 -57 3 -31 0 -69 -6 -84 -8 -24 -7 -33 12 -58 12 -17 22 -34 22 -39
0 -5 9 -19 19 -31 11 -13 22 -28 24 -34 2 -8 30 -12 74 -12 65 0 73 -3 99 -29
16 -15 29 -33 29 -40 1 -6 13 -30 28 -53 15 -24 27 -47 27 -52 0 -5 7 -11 15
-15 8 -3 15 -16 15 -28 0 -31 35 -82 61 -88 12 -3 31 -21 42 -41 l21 -36 -23
-29 c-43 -55 -114 -124 -128 -124 -8 0 -30 -12 -49 -26 -22 -17 -52 -28 -86
-33 -56 -6 -65 -16 -99 -108 -6 -18 -21 -43 -34 -57 -12 -13 -25 -36 -29 -50
-3 -14 -11 -26 -16 -26 -15 0 -11 -73 5 -94 22 -30 18 -65 -12 -96 -20 -21
-33 -28 -52 -24 -31 6 -81 -36 -124 -103 -15 -24 -34 -43 -43 -43 -17 0 -53
-38 -54 -56 0 -6 -7 -17 -15 -24 -9 -8 -15 -30 -15 -59 0 -50 -13 -71 -42 -71
-11 0 -18 -7 -18 -19 0 -10 -7 -24 -15 -31 -9 -7 -15 -29 -15 -51 0 -34 -3
-39 -27 -44 -16 -4 -40 -13 -55 -21 -34 -18 -48 -18 -78 3 -14 10 -33 16 -42
15 -27 -5 -58 17 -58 41 -1 28 -38 71 -71 81 -13 5 -49 11 -79 16 -30 4 -63
10 -72 14 -13 6 -22 0 -37 -26 -11 -18 -34 -41 -51 -51 -16 -10 -30 -25 -30
-33 0 -8 -4 -14 -10 -14 -5 0 -12 -11 -16 -25 -11 -44 -55 -44 -126 2 -26 16
-58 25 -101 28 -58 4 -66 2 -87 -20 -36 -39 -33 -90 8 -121 28 -23 32 -31 32
-75 0 -46 -2 -49 -25 -49 -14 0 -39 10 -56 22 -20 15 -41 21 -64 19 -30 -2
-36 1 -45 23 -5 14 -14 26 -19 26 -12 0 -51 76 -51 100 0 11 -4 20 -9 20 -5 0
-13 40 -17 90 -4 54 -12 94 -20 101 -18 15 -50 7 -46 -13 4 -26 -25 -43 -52
-30 -29 13 -41 78 -20 103 18 21 18 45 -1 53 -11 4 -13 16 -9 50 6 43 5 46
-47 98 -67 66 -118 108 -131 108 -5 0 -23 -13 -38 -30 -24 -26 -35 -30 -79
-30 -28 0 -51 -4 -51 -10 0 -5 -8 -10 -19 -10 -15 0 -20 10 -26 48 -3 26 -11
61 -17 77 -8 23 -7 41 4 74 15 42 14 46 -8 79 -17 25 -22 41 -17 56 14 36 10
263 -4 278 -8 7 -13 40 -13 83 0 43 -5 76 -12 83 -10 10 -10 17 -1 31 7 11 12
67 13 137 4 320 5 327 68 359 70 36 104 86 103 150 -1 66 -1 76 4 178 5 99 15
137 38 137 29 0 45 39 50 120 2 44 9 86 15 92 7 7 12 39 12 71 0 51 4 63 26
83 29 27 66 31 84 9 7 -8 20 -15 30 -15 10 0 23 7 30 15 7 8 29 15 50 15 24 0
40 -5 44 -15 3 -9 18 -15 40 -15 19 0 41 7 50 15 16 17 66 21 66 5 0 -17 53
-10 85 11 17 11 38 22 48 25 9 4 17 16 17 28 0 11 14 41 30 66 16 25 30 52 30
61 0 24 10 29 55 29 33 0 46 -6 65 -30z m2530 -764 c0 -19 7 -39 15 -46 8 -7
15 -20 15 -30 0 -23 26 -33 42 -17 23 21 67 47 81 47 8 0 20 -7 27 -15 7 -8
19 -15 27 -15 8 0 26 -13 41 -29 15 -15 46 -37 70 -47 23 -10 42 -21 42 -26 0
-4 5 -8 11 -8 15 0 152 -90 162 -107 13 -21 47 -16 47 6 0 11 5 23 10 26 6 3
10 16 10 29 0 25 39 76 58 76 19 0 82 -70 82 -91 0 -21 44 -44 63 -32 7 3 29
19 49 35 30 23 44 28 67 23 33 -7 48 7 26 25 -16 13 -20 47 -9 74 8 20 21 20
41 0 11 -11 26 -14 49 -10 22 5 37 2 47 -9 9 -8 20 -15 25 -15 5 0 19 -9 31
-19 31 -27 48 -17 47 27 -2 58 30 50 65 -17 28 -51 30 -71 7 -71 -5 0 -21 -10
-34 -22 -17 -17 -24 -34 -24 -64 0 -36 6 -47 48 -87 82 -81 91 -98 62 -127
-11 -11 -20 -26 -20 -33 0 -8 -13 -27 -30 -43 -16 -16 -30 -37 -30 -46 0 -10
-10 -23 -22 -29 -29 -15 -38 -28 -38 -57 0 -28 -36 -61 -65 -62 -11 0 -26 -9
-32 -19 -11 -17 -6 -26 42 -74 30 -30 55 -62 55 -71 0 -18 19 -39 72 -80 28
-21 35 -32 29 -44 -34 -70 -53 -96 -118 -160 -60 -60 -73 -78 -73 -105 0 -28
-16 -47 -120 -146 -66 -63 -120 -120 -120 -127 0 -22 -33 -71 -62 -90 -19 -13
-28 -28 -28 -46 0 -16 -4 -28 -10 -28 -5 0 -10 -5 -10 -11 0 -7 -10 -31 -22
-55 -19 -40 -20 -45 -6 -61 9 -10 18 -35 22 -55 6 -31 3 -39 -14 -48 -17 -9
-20 -21 -20 -80 0 -38 -4 -71 -9 -74 -5 -3 -12 -18 -15 -33 -4 -16 -14 -43
-24 -60 -14 -29 -22 -33 -57 -33 -22 0 -53 7 -69 15 -43 23 -56 6 -56 -72 0
-99 -2 -101 -117 -102 -95 0 -97 0 -144 34 -49 37 -74 44 -82 23 -3 -10 -18
-9 -69 5 -37 9 -75 17 -85 17 -11 0 -33 13 -49 30 -16 16 -39 30 -51 30 -13 0
-23 6 -23 13 0 7 -3 8 -8 2 -4 -6 -20 -16 -37 -23 -25 -12 -31 -11 -41 2 -6 9
-18 14 -27 10 -9 -3 -24 1 -32 10 -20 20 -64 21 -71 2 -3 -8 -16 -17 -30 -20
-23 -6 -35 -36 -14 -36 16 0 12 -47 -5 -54 -8 -3 -15 -12 -15 -19 0 -8 7 -20
15 -27 22 -18 18 -48 -7 -76 -18 -18 -34 -24 -70 -24 -41 0 -48 -3 -60 -27 -7
-16 -23 -29 -36 -31 -17 -3 -22 -10 -22 -32 0 -16 -5 -30 -12 -32 -7 -3 -13
-31 -15 -73 -2 -49 -7 -71 -18 -77 -8 -5 -15 -18 -15 -29 0 -11 -7 -22 -15
-25 -8 -4 -15 -12 -15 -19 0 -7 -7 -18 -15 -25 -11 -9 -15 -27 -13 -59 l3 -46
-48 -5 c-53 -7 -73 6 -62 39 9 30 -10 57 -55 75 -22 9 -40 21 -40 27 0 6 -7
17 -15 25 -8 9 -15 28 -15 44 0 39 -31 90 -54 90 -11 0 -28 8 -38 17 -17 15
-20 15 -38 -5 -15 -16 -25 -19 -43 -13 -18 7 -22 16 -22 53 0 25 -8 55 -18 71
l-18 27 -30 -31 c-36 -37 -82 -44 -87 -14 -4 28 51 69 84 62 19 -3 24 0 24 16
0 21 40 110 53 115 4 2 7 16 7 32 0 15 7 33 15 40 8 7 15 20 15 29 0 20 53 71
74 71 11 0 16 10 16 34 0 18 7 39 15 46 8 7 15 18 15 25 0 7 -7 15 -15 19 -23
9 -18 42 9 54 13 6 34 30 47 53 20 36 38 50 104 84 111 56 155 97 155 147 0
21 4 38 9 38 21 0 74 69 76 100 2 19 9 39 17 44 10 8 15 31 15 73 0 45 5 68
16 81 13 14 17 38 17 97 0 43 4 92 10 109 5 17 12 52 15 79 l6 47 43 0 c57 0
69 17 72 98 2 47 7 69 18 78 9 6 16 20 16 31 0 10 5 24 10 29 7 7 -5 26 -35
57 -56 59 -60 93 -14 128 55 43 69 91 69 241 l1 133 29 25 c33 27 37 47 15 76
-22 29 -19 73 8 95 27 23 34 23 53 4 19 -19 29 -19 46 -1 8 8 23 16 34 18 18
3 28 32 38 109 6 46 24 68 59 71 48 5 67 -7 67 -46z m-500 -706 c12 -8 13 -13
2 -30 -10 -17 -10 -21 3 -26 9 -4 15 -19 15 -38 0 -31 28 -66 63 -79 19 -7 23
-32 7 -42 -5 -3 -10 -14 -10 -24 0 -10 -7 -24 -15 -31 -9 -7 -15 -35 -17 -73
l-3 -62 -41 3 c-53 4 -74 -24 -74 -101 0 -30 -7 -71 -15 -90 -8 -21 -15 -67
-15 -105 0 -50 -4 -73 -15 -82 -11 -9 -15 -32 -15 -80 0 -51 -4 -69 -15 -74
-8 -3 -15 -16 -15 -29 0 -14 -16 -37 -45 -62 -36 -32 -45 -47 -45 -72 0 -23
-9 -42 -34 -66 -32 -32 -106 -77 -127 -77 -18 0 -79 -63 -79 -82 0 -12 -17
-29 -45 -46 -48 -29 -52 -42 -35 -102 13 -45 -3 -88 -36 -96 -13 -3 -24 -12
-24 -19 0 -6 -9 -20 -20 -30 -11 -10 -20 -26 -20 -35 0 -10 -13 -44 -30 -76
-16 -32 -30 -67 -30 -77 0 -10 -8 -21 -17 -24 -24 -9 -106 -71 -115 -88 -5 -7
-1 -18 7 -25 9 -7 15 -29 15 -52 0 -36 2 -39 22 -32 12 3 36 22 54 41 18 19
39 33 46 31 7 -3 14 -24 16 -48 3 -42 42 -107 56 -93 4 4 22 12 41 19 47 16
85 0 85 -37 0 -14 7 -34 15 -45 8 -10 15 -28 15 -39 1 -26 73 -88 87 -74 17
17 31 -13 26 -53 -4 -32 -10 -39 -39 -48 -43 -15 -54 -47 -24 -70 25 -19 22
-50 -4 -50 -7 0 -16 -7 -20 -15 -4 -10 -20 -15 -51 -15 -51 0 -68 -19 -41 -45
9 -9 16 -25 16 -36 0 -10 5 -19 10 -19 16 0 12 -40 -5 -46 -8 -4 -15 -18 -15
-34 0 -15 7 -33 15 -40 8 -7 15 -21 15 -31 0 -10 7 -22 16 -27 25 -14 13 -47
-18 -50 -15 -2 -32 -10 -38 -18 -16 -19 -69 -18 -91 2 -16 14 -19 13 -40 -15
-13 -17 -30 -31 -40 -31 -9 0 -22 -7 -29 -15 -8 -10 -31 -15 -66 -15 -60 0
-71 -16 -32 -42 20 -13 21 -17 9 -32 -8 -10 -21 -14 -30 -10 -21 8 -127 8
-140 -1 -6 -3 -11 -13 -11 -21 0 -11 -12 -14 -48 -13 -42 2 -52 -2 -81 -30
-19 -18 -39 -30 -47 -27 -9 3 -19 -4 -26 -19 -15 -33 -50 -41 -92 -21 -19 9
-41 16 -50 16 -9 0 -16 4 -16 9 0 5 -9 12 -19 16 -11 3 -24 18 -29 33 -5 15
-19 38 -31 52 -12 14 -27 33 -34 43 -7 10 -26 20 -42 22 -16 1 -31 8 -33 14
-2 6 -14 11 -27 11 -13 0 -28 6 -32 14 -4 8 -19 16 -33 18 -20 2 -26 9 -28 36
-2 21 3 41 13 52 14 15 14 18 0 30 -8 7 -15 20 -15 30 0 10 -14 34 -32 54 -24
27 -40 36 -63 36 -39 0 -55 16 -55 55 l0 31 -80 1 c-44 1 -85 5 -90 8 -6 3
-10 28 -10 56 0 36 -5 54 -20 69 -25 25 -35 25 -67 0 -14 -11 -48 -27 -76 -35
-27 -8 -56 -20 -64 -27 -12 -10 -17 -9 -27 3 -6 8 -19 18 -28 22 -26 9 -22 36
7 49 14 6 25 15 25 20 0 4 9 8 20 8 12 0 20 7 20 18 0 9 12 31 28 47 31 35 62
115 62 163 0 18 7 44 16 58 13 19 16 39 11 90 -6 60 -5 66 13 71 16 4 20 14
20 44 0 28 5 41 20 49 16 9 18 18 15 66 -2 31 -10 63 -17 71 -13 16 -32 48
-44 73 -4 8 -18 32 -31 52 -17 28 -23 52 -23 95 0 76 -7 97 -33 108 -13 6 -23
21 -25 35 -2 22 4 29 37 43 30 14 45 16 60 8 11 -6 28 -11 39 -11 10 0 36 -13
58 -30 51 -39 100 -40 131 -3 13 14 23 31 23 36 0 18 43 57 63 57 10 0 32 14
47 30 18 19 38 30 56 30 34 0 123 -59 124 -81 0 -25 70 -74 100 -71 15 2 32
-4 40 -12 16 -21 76 -21 84 -1 3 9 18 15 38 15 50 0 78 33 78 92 0 26 4 48 9
48 5 0 25 17 45 37 31 32 36 44 36 85 0 53 21 84 61 90 14 2 30 17 42 42 32
61 85 109 115 103 20 -4 35 4 69 37 48 46 52 67 23 111 -26 39 -26 81 -1 95
12 6 17 17 14 29 -3 13 2 23 17 31 12 6 19 18 16 25 -2 7 4 21 15 31 12 11 19
28 17 44 -3 37 9 50 46 50 19 0 39 7 46 15 7 8 20 15 30 15 10 0 23 7 30 15 7
8 20 15 30 15 10 0 23 7 30 15 7 8 18 15 26 15 13 0 84 65 84 77 0 12 36 32
58 33 12 0 31 -5 41 -12 15 -9 22 -8 35 5 9 8 16 24 16 35 0 11 7 25 15 32 8
7 15 27 15 44 0 36 15 56 42 56 10 0 18 4 18 10 0 5 17 18 38 29 40 21 146 27
172 11z m-4190 -425 c7 -8 28 -15 47 -15 31 0 75 -20 98 -44 40 -43 142 -61
181 -31 10 8 31 15 45 15 15 0 29 7 33 15 8 21 65 19 82 -2 13 -17 15 -17 29
1 13 17 23 18 97 12 46 -4 87 -11 92 -16 6 -6 22 -10 38 -10 15 0 31 -7 36
-16 9 -15 12 -15 41 2 30 18 33 18 45 2 7 -9 29 -18 51 -20 l40 -3 1 -52 c1
-58 23 -108 58 -135 18 -13 31 -15 60 -8 53 12 66 -5 66 -90 0 -58 3 -68 19
-73 20 -5 139 14 210 33 23 6 51 8 63 4 25 -7 68 -52 68 -69 0 -6 11 -17 25
-23 26 -12 32 -26 15 -37 -13 -8 -13 -142 -1 -147 6 -1 11 -28 13 -58 3 -48 6
-55 23 -52 85 13 118 -14 128 -101 4 -28 11 -55 17 -61 5 -5 10 -17 10 -25 0
-8 7 -22 16 -32 18 -20 11 -39 -14 -39 -26 0 -57 -40 -76 -95 l-16 -51 -88
-18 c-85 -17 -90 -17 -128 1 -21 10 -42 22 -45 27 -4 5 -33 9 -65 10 l-59 1
-3 -41 c-2 -30 2 -45 18 -59 11 -10 20 -26 20 -36 0 -10 7 -22 16 -27 11 -6
14 -21 12 -53 l-3 -44 -49 -3 c-37 -2 -52 1 -58 12 -14 24 -38 19 -38 -7 0
-14 -12 -32 -29 -45 -25 -18 -31 -19 -41 -7 -7 9 -29 15 -52 15 -30 0 -44 6
-62 27 -20 23 -26 25 -39 15 -14 -12 -20 -34 -32 -119 -14 -94 -16 -103 -30
-103 -8 0 -15 -4 -15 -9 0 -8 -60 -40 -102 -54 -15 -5 -18 -18 -18 -65 0 -41
-5 -64 -15 -72 -22 -18 -22 -260 -1 -260 31 0 31 -95 0 -107 -8 -3 -14 -12
-14 -21 0 -19 -38 -100 -51 -108 -5 -3 -9 -18 -9 -33 0 -43 -19 -54 -75 -41
-40 9 -50 8 -73 -8 -37 -25 -110 -62 -124 -62 -6 0 -19 -6 -27 -14 -9 -7 -32
-16 -52 -19 -33 -5 -40 -1 -67 29 -17 19 -39 34 -49 34 -10 0 -29 7 -41 16
-25 17 -26 16 -37 -49 -5 -32 -9 -37 -26 -32 -11 4 -25 0 -33 -8 -15 -15 -62
-12 -72 4 -8 14 -67 10 -88 -6 -11 -8 -28 -15 -38 -15 -12 0 -24 -13 -33 -34
-8 -18 -25 -40 -38 -49 -15 -10 -29 -34 -37 -64 -15 -57 -26 -72 -58 -84 -12
-5 -22 -15 -20 -22 3 -15 -35 -67 -50 -67 -5 0 -23 7 -38 15 -16 8 -50 15 -76
15 -26 0 -50 5 -53 10 -3 6 -33 10 -66 10 -33 0 -59 4 -59 10 0 6 -12 15 -27
21 -69 25 -94 43 -91 69 2 14 13 30 26 36 41 20 92 77 92 102 0 33 35 80 63
84 18 2 23 10 25 47 3 40 0 47 -34 78 -21 18 -46 33 -56 33 -40 0 -58 19 -58
59 0 21 6 44 14 50 8 7 16 31 18 54 3 23 8 49 12 58 7 16 -23 53 -87 106 -56
47 -42 122 29 158 22 11 43 26 47 33 4 6 14 12 22 12 7 0 20 6 28 14 8 8 38
16 68 18 l54 3 3 52 c2 29 9 56 17 63 8 7 15 18 15 25 0 13 62 65 78 65 6 0
12 7 16 15 3 9 18 15 39 15 22 0 40 8 54 23 18 20 19 30 13 97 -4 41 -5 98 -3
126 6 56 -14 94 -50 94 -38 0 -117 51 -117 77 0 7 18 29 40 50 59 52 77 98 70
173 -8 82 8 96 63 58 21 -15 47 -3 62 30 5 12 13 22 17 22 5 0 8 13 8 29 0 20
-10 39 -30 58 -31 29 -38 61 -19 80 7 7 19 35 29 63 21 63 13 85 -55 149 -63
59 -61 84 10 156 59 59 91 69 129 40 11 -8 27 -15 36 -15 18 0 80 62 80 81 0
20 -79 88 -127 109 -33 14 -28 35 15 58 45 25 114 28 132 7z m5913 -182 c4 -7
19 -13 33 -13 13 0 39 -6 57 -14 18 -7 63 -16 100 -20 51 -6 71 -13 89 -32 13
-13 27 -24 31 -24 5 0 15 -7 23 -15 24 -24 66 -18 96 13 25 27 32 29 109 30
46 1 89 -4 95 -9 7 -6 16 -24 19 -41 9 -37 34 -68 56 -68 10 0 32 -8 51 -17
18 -9 45 -22 60 -30 34 -17 56 -16 92 2 41 22 61 19 75 -11 10 -22 16 -25 40
-21 32 7 83 -20 101 -52 6 -12 21 -21 33 -21 13 0 28 -5 33 -10 14 -14 57 8
85 44 12 15 30 26 45 26 14 0 27 7 30 15 4 9 19 15 39 15 46 0 65 9 75 35 7
18 19 23 67 28 54 6 59 4 80 -21 16 -19 22 -41 23 -73 0 -29 6 -51 15 -59 8
-7 15 -21 15 -31 0 -11 4 -19 9 -19 6 0 16 -12 23 -27 12 -26 19 -29 108 -39
52 -6 95 -12 95 -14 0 -1 41 -4 90 -6 50 -2 100 -6 112 -9 21 -5 43 -49 43
-86 0 -28 36 -59 68 -59 33 0 52 -16 52 -45 0 -12 5 -26 12 -33 18 -18 103
-15 119 4 7 9 25 14 44 13 24 -3 40 5 66 29 25 23 40 30 54 25 25 -8 43 -8 76
1 18 5 31 3 42 -8 8 -9 20 -16 25 -16 5 0 19 -9 32 -20 13 -11 27 -20 31 -20
5 0 13 9 19 20 12 23 52 27 72 7 31 -30 94 -47 165 -46 77 2 103 -9 103 -43 0
-10 7 -21 15 -24 11 -4 15 -21 15 -57 0 -56 19 -87 54 -87 33 -1 79 -54 74
-84 -4 -19 2 -33 23 -53 31 -31 39 -77 14 -87 -19 -7 -22 -106 -3 -106 6 0 19
-6 27 -14 16 -14 87 -34 154 -43 21 -3 41 -11 44 -19 3 -8 13 -14 22 -14 28 0
161 -136 161 -165 0 -13 5 -27 10 -30 7 -4 7 -12 0 -25 -7 -13 -6 -21 5 -30
10 -8 15 -32 15 -71 0 -62 21 -99 57 -99 9 0 37 -10 61 -22 41 -19 48 -20 71
-7 14 8 37 31 50 52 22 33 29 37 67 37 23 0 55 -7 70 -15 38 -20 93 -19 116 2
16 15 20 15 36 0 9 -8 31 -17 47 -19 25 -2 30 -7 27 -26 -1 -13 -16 -40 -32
-60 -19 -24 -30 -48 -30 -68 0 -17 -7 -37 -15 -44 -24 -20 -18 -61 14 -89 53
-48 50 -121 -6 -121 -31 0 -49 -18 -58 -58 -3 -17 -11 -34 -16 -37 -5 -4 -9
-23 -9 -43 -1 -20 -7 -55 -15 -77 -8 -22 -15 -51 -15 -66 0 -57 -65 -68 -120
-19 -27 24 -42 30 -81 30 -29 0 -53 6 -63 15 -20 20 -22 20 -59 -15 -41 -39
-79 -39 -115 -2 -20 21 -42 31 -77 35 -56 8 -73 20 -57 39 19 23 -10 48 -55
48 -24 0 -46 6 -53 15 -8 10 -30 15 -61 15 -34 0 -51 5 -57 16 -6 11 -25 16
-64 18 -51 1 -58 4 -116 56 -34 30 -62 63 -62 73 0 34 -38 16 -90 -43 -29 -33
-57 -60 -62 -60 -12 0 -73 -46 -118 -87 -28 -27 -43 -33 -77 -33 -36 0 -49 -6
-90 -45 -26 -25 -53 -45 -60 -45 -7 0 -13 -8 -13 -19 0 -10 -7 -24 -15 -31 -8
-7 -15 -20 -15 -29 0 -9 -6 -25 -14 -36 -7 -11 -16 -34 -20 -51 -11 -50 -42
-77 -82 -70 -24 5 -35 3 -42 -9 -4 -9 -17 -18 -28 -19 -10 -2 -20 -12 -22 -24
-2 -11 -10 -26 -18 -32 -8 -7 -14 -20 -14 -30 0 -10 -14 -30 -30 -43 -16 -14
-30 -34 -30 -44 0 -11 -13 -30 -30 -43 -16 -14 -29 -31 -30 -38 0 -23 -43 -72
-62 -72 -10 0 -18 5 -18 10 0 6 -9 10 -19 10 -11 0 -23 -4 -26 -10 -3 -5 -22
-10 -41 -10 -39 0 -64 -21 -79 -65 -8 -22 -18 -31 -38 -33 -24 -3 -28 1 -34
28 -4 20 -14 35 -28 40 -13 5 -26 14 -30 19 -3 6 -29 11 -56 11 -41 0 -54 5
-77 28 -15 15 -46 35 -69 46 -23 10 -44 25 -47 32 -7 18 -30 18 -46 -1 -7 -8
-20 -15 -30 -15 -10 0 -34 -20 -54 -45 l-37 -45 -73 0 c-53 0 -77 -4 -86 -15
-19 -23 -39 -18 -67 15 -13 17 -29 30 -35 30 -6 0 -25 12 -43 28 -17 15 -40
32 -50 37 -19 11 -23 85 -16 261 3 64 0 87 -13 105 -9 13 -16 39 -16 57 0 27
-9 42 -45 76 -26 25 -45 53 -45 65 0 13 -6 21 -18 21 -9 0 -38 20 -64 44 -26
24 -54 46 -63 49 -8 4 -19 17 -24 30 -5 12 -16 29 -25 36 -12 10 -15 23 -11
45 8 42 -19 60 -64 43 -29 -11 -33 -9 -63 23 -30 34 -34 35 -99 34 -46 0 -79
-6 -103 -19 -38 -21 -48 -43 -39 -86 3 -17 0 -35 -7 -44 -10 -12 -10 -32 -1
-96 16 -106 1 -128 -64 -95 -32 17 -190 13 -211 -5 -10 -8 -22 -8 -41 -1 -40
15 -255 15 -264 0 -5 -7 -18 -13 -31 -13 -32 -2 -68 -35 -68 -63 0 -26 -23
-66 -62 -104 -16 -15 -28 -36 -28 -46 0 -11 -7 -25 -15 -32 -8 -7 -15 -21 -15
-31 0 -11 -7 -19 -14 -19 -20 0 -66 44 -66 62 0 9 -7 21 -15 28 -8 7 -15 19
-15 27 0 24 -31 63 -51 63 -17 0 -39 27 -39 49 0 5 6 16 13 23 7 7 20 24 29
37 15 22 15 25 -2 43 -10 11 -23 17 -29 14 -17 -11 -59 4 -64 23 -11 42 -127
64 -127 24 0 -32 -91 -103 -132 -103 -16 0 -28 -3 -28 -8 0 -4 -23 -18 -51
-31 -55 -27 -83 -22 -85 15 -1 11 -2 27 -3 37 -1 11 -9 17 -26 17 -28 0 -92
30 -99 46 -2 7 1 29 9 50 12 37 16 39 62 44 50 5 93 33 93 60 0 9 5 21 11 27
7 7 2 20 -19 44 -16 19 -34 44 -41 56 -16 32 -14 119 6 156 9 18 15 49 15 69
-1 24 3 38 10 38 9 0 9 3 0 12 -8 8 -12 47 -12 107 -1 94 -2 97 -30 121 -29
23 -30 27 -30 110 0 90 15 130 48 130 24 0 72 63 72 94 l0 25 143 3 142 3 5
70 5 70 70 3 c73 3 105 19 105 53 0 10 7 24 15 33 8 8 15 28 15 43 0 16 7 38
15 49 8 10 15 40 15 65 0 32 5 49 15 53 10 4 15 19 15 49 0 27 -6 49 -15 57
-24 20 -18 63 15 108 17 23 30 48 30 55 0 7 14 23 30 37 19 16 30 34 30 51 0
14 10 39 23 55 37 47 130 133 159 146 15 7 29 19 33 28 8 22 31 60 44 73 6 6
11 19 11 28 0 9 12 31 26 47 24 27 30 29 53 19 14 -6 30 -17 34 -24z m-4103
-933 c0 -5 -4 -10 -10 -10 -5 0 -10 5 -10 10 0 6 5 10 10 10 6 0 10 -4 10 -10z
m-70 -44 c0 -22 -18 -38 -36 -34 -25 4 -29 41 -8 63 17 16 18 16 31 -1 7 -10
13 -23 13 -28z m177 12 c9 -18 17 -37 18 -43 0 -15 44 -18 60 -5 18 15 35 5
35 -19 0 -10 7 -24 15 -31 8 -7 15 -21 15 -31 0 -10 6 -22 13 -26 20 -13 47
-60 47 -83 0 -14 -7 -20 -23 -20 -26 0 -64 -34 -49 -44 20 -12 20 -57 1 -69
-16 -10 -19 -25 -19 -102 -1 -63 -5 -96 -15 -109 -8 -11 -15 -41 -15 -67 0
-32 -5 -49 -15 -53 -8 -3 -15 -14 -15 -24 0 -19 -56 -82 -119 -134 -36 -30
-38 -61 -6 -66 11 -2 25 -9 30 -15 25 -29 44 -38 62 -29 59 29 93 41 136 47
l47 6 0 -41 c0 -66 29 -90 109 -90 64 0 101 -16 101 -44 0 -15 40 -40 68 -43
28 -2 52 -26 52 -51 0 -11 7 -25 15 -32 8 -7 15 -18 15 -25 0 -7 -7 -18 -15
-25 -8 -7 -15 -20 -15 -29 1 -22 41 -67 68 -76 12 -3 22 -11 22 -16 0 -5 9 -9
20 -9 42 0 130 -52 130 -76 0 -4 7 -12 16 -18 12 -9 16 -30 16 -84 0 -49 4
-75 14 -83 9 -8 14 -32 14 -73 0 -34 5 -67 11 -73 13 -13 -14 -146 -31 -151
-5 -2 -10 -17 -10 -33 0 -23 -4 -29 -22 -29 -12 0 -29 7 -38 15 -17 15 -50 11
-50 -6 0 -12 -57 -12 -65 1 -3 5 -13 6 -21 3 -18 -7 -92 15 -115 34 -30 25
-73 16 -109 -24 -30 -35 -33 -43 -31 -101 2 -58 0 -63 -23 -72 -18 -6 -27 -19
-32 -44 -3 -19 -12 -40 -20 -47 -8 -6 -14 -19 -14 -28 0 -9 -13 -28 -30 -41
-16 -14 -29 -30 -30 -36 0 -7 -7 -14 -15 -18 -8 -3 -15 -15 -15 -26 0 -11 -7
-23 -15 -26 -8 -4 -15 -14 -15 -24 0 -10 -4 -20 -8 -22 -9 -4 -82 -145 -82
-159 0 -6 -13 -24 -30 -42 -16 -18 -30 -38 -30 -44 0 -7 -4 -13 -10 -13 -5 0
-12 -17 -16 -37 -4 -21 -20 -64 -35 -97 -16 -32 -29 -69 -29 -82 0 -13 -4 -24
-9 -24 -5 0 -13 -15 -16 -32 -4 -18 -11 -37 -15 -43 -4 -5 -10 -22 -13 -36 -4
-14 -18 -38 -32 -53 -14 -15 -25 -31 -25 -36 0 -5 -7 -16 -16 -24 -8 -9 -17
-26 -19 -38 -3 -12 -10 -25 -17 -29 -7 -5 -14 -14 -14 -21 -1 -7 -2 -19 -3
-26 -1 -8 -11 -12 -28 -10 -39 3 -114 -12 -138 -28 -27 -19 -40 -18 -70 10
-15 14 -33 22 -41 19 -8 -3 -21 0 -29 7 -8 7 -29 10 -47 8 -19 -3 -47 1 -65
10 -27 13 -39 13 -71 4 -65 -20 -75 -17 -68 21 3 17 1 50 -5 72 -6 22 -13 54
-16 70 -3 17 -12 36 -21 42 -13 11 -14 16 -3 37 14 26 8 46 -13 46 -8 0 -19 7
-26 15 -7 8 -20 14 -29 13 -11 -2 -16 5 -16 22 0 18 6 26 23 28 18 3 22 10 22
37 0 20 -6 35 -15 39 -8 3 -15 14 -15 25 0 10 7 21 15 25 20 7 19 29 -2 49
-13 11 -41 15 -102 16 -60 1 -89 5 -101 16 -9 8 -29 15 -44 15 -52 0 -66 15
-66 74 0 35 -5 58 -15 66 -8 7 -15 18 -15 25 0 7 -7 15 -15 19 -10 3 -15 19
-15 44 0 21 -7 47 -15 58 -21 28 -21 236 0 254 12 10 15 37 15 119 0 79 4 112
15 127 8 10 15 33 15 50 0 17 7 37 15 44 8 7 15 29 15 49 0 20 7 45 15 55 8
11 15 38 15 61 0 23 3 45 7 49 5 4 9 17 10 29 9 80 16 100 44 116 26 14 29 21
29 67 0 27 5 55 11 61 6 6 8 16 5 22 -12 19 -46 12 -74 -14 -15 -14 -34 -24
-42 -23 -21 4 -26 66 -6 74 9 4 16 18 16 34 0 15 7 33 15 40 8 7 15 21 15 31
0 11 14 38 30 61 17 22 30 53 30 68 0 16 7 30 15 34 24 9 18 36 -7 36 -47 0
-50 9 -43 135 3 65 10 126 16 137 6 10 13 38 17 61 6 36 11 42 34 45 15 2 32
10 38 18 7 8 19 14 26 14 8 0 23 9 34 20 16 16 20 33 20 90 0 39 3 70 8 70 4
1 29 3 55 5 33 3 59 -1 80 -12 22 -11 32 -12 35 -4 2 6 17 11 33 11 19 0 29 5
29 15 0 12 16 15 88 15 l87 0 -2 65 c-2 56 -7 72 -38 120 -21 30 -35 62 -31
70 8 21 75 19 99 -2 16 -15 37 -18 124 -16 75 1 109 6 121 16 9 8 44 22 77 32
37 11 80 35 114 62 29 23 59 43 67 43 7 0 21 -15 31 -32z m2440 -75 c4 -10 14
-23 22 -30 22 -17 86 -16 101 2 7 8 25 15 40 15 15 0 33 -7 40 -15 7 -8 20
-15 29 -15 9 0 29 -7 45 -15 15 -8 45 -15 65 -16 20 0 54 -3 76 -7 36 -7 40
-10 37 -35 -2 -15 4 -35 13 -44 23 -22 15 -47 -17 -51 -45 -5 -59 -33 -65
-122 -3 -44 -10 -83 -14 -86 -14 -8 -10 -40 6 -54 8 -7 15 -20 15 -30 0 -10 7
-20 15 -24 9 -3 15 -18 15 -35 0 -16 4 -32 9 -36 21 -12 -1 -235 -31 -312 -11
-28 -10 -37 5 -62 9 -16 17 -40 17 -54 0 -18 7 -27 25 -31 14 -4 28 -13 31
-21 8 -20 -36 -65 -63 -65 -12 0 -25 -5 -28 -11 -4 -5 -17 -9 -30 -7 -32 4
-55 -19 -55 -56 0 -17 -7 -42 -16 -55 -14 -20 -15 -25 -2 -38 8 -8 31 -16 51
-18 51 -4 85 -33 89 -75 4 -41 29 -50 90 -29 44 14 58 7 40 -21 -7 -11 -12
-30 -12 -43 0 -12 -7 -33 -16 -46 -13 -18 -14 -25 -4 -31 19 -11 7 -54 -17
-65 -13 -5 -23 -19 -23 -30 0 -11 -7 -29 -15 -39 -9 -12 -15 -43 -15 -80 0
-74 -9 -91 -43 -82 -14 3 -29 2 -32 -4 -3 -5 -22 -10 -40 -10 -37 0 -63 -28
-44 -47 11 -11 2 -43 -12 -43 -5 0 -9 -14 -9 -30 0 -18 -6 -33 -15 -36 -8 -4
-15 -16 -15 -28 0 -12 -5 -27 -12 -34 -7 -7 -15 -33 -18 -60 -5 -46 -6 -47
-43 -50 -46 -4 -77 -32 -77 -71 0 -16 -7 -34 -15 -41 -8 -7 -15 -20 -15 -29 0
-26 -21 -41 -57 -41 l-33 0 0 -70 c0 -51 -4 -72 -14 -76 -8 -3 -16 -14 -19
-26 -5 -16 -11 -19 -35 -14 -20 5 -33 2 -42 -9 -7 -8 -20 -15 -30 -15 -10 0
-23 -7 -30 -15 -7 -8 -19 -15 -26 -15 -8 0 -14 -10 -14 -24 0 -13 -7 -26 -15
-30 -8 -3 -15 -16 -15 -28 0 -13 -7 -32 -15 -42 -12 -16 -15 -56 -15 -188 l0
-168 25 -10 c13 -5 30 -18 37 -30 7 -11 18 -20 25 -20 27 0 45 -47 38 -97 -8
-57 -33 -132 -52 -154 -7 -8 -13 -29 -13 -45 0 -21 -10 -40 -30 -59 -16 -16
-30 -32 -30 -36 0 -4 -25 -32 -55 -62 -30 -31 -57 -69 -61 -84 -8 -38 -25 -74
-44 -93 -23 -23 -50 -74 -50 -93 0 -14 -7 -30 -15 -37 -8 -7 -15 -18 -15 -25
0 -7 -7 -15 -15 -19 -19 -7 -20 -62 -2 -73 22 -13 47 -56 47 -80 0 -13 9 -32
21 -44 18 -18 20 -28 14 -69 -7 -48 -2 -62 36 -130 5 -8 13 -25 19 -37 5 -13
14 -23 20 -23 5 0 10 -11 10 -24 0 -14 5 -28 11 -31 5 -4 14 -17 19 -30 7 -18
18 -24 47 -27 36 -3 38 -5 41 -41 2 -26 -1 -39 -12 -43 -13 -5 -16 -22 -16
-82 0 -56 -4 -80 -16 -93 -22 -24 -13 -42 30 -63 50 -23 106 -82 106 -109 0
-24 -47 -77 -69 -77 -21 0 -125 -52 -147 -74 -31 -31 -38 -109 -11 -142 16
-21 20 -40 19 -102 0 -64 -5 -85 -27 -127 -15 -27 -35 -58 -46 -68 -10 -10
-19 -22 -19 -27 0 -15 -69 -80 -85 -80 -8 0 -18 8 -24 17 -8 15 -14 16 -43 5
-19 -6 -46 -12 -61 -12 -15 0 -36 -9 -47 -20 -20 -20 -60 -28 -60 -12 0 18
-48 29 -112 24 -65 -4 -69 -6 -100 -44 -18 -22 -45 -54 -60 -72 -16 -19 -28
-43 -28 -54 0 -11 -7 -25 -15 -32 -8 -7 -15 -25 -15 -41 0 -15 -5 -31 -10 -34
-15 -9 -50 -81 -50 -102 -1 -34 -46 -73 -85 -73 -27 0 -35 -4 -35 -18 0 -10 5
-23 11 -29 5 -5 9 -30 7 -54 l-3 -44 -48 -3 c-42 -3 -49 -6 -61 -35 -7 -18
-16 -50 -20 -72 -4 -21 -21 -56 -37 -76 -16 -20 -29 -41 -29 -45 0 -5 -13 -24
-29 -43 -22 -27 -35 -34 -62 -33 -20 0 -39 8 -47 19 -12 17 -15 16 -42 -17
-25 -29 -30 -44 -30 -91 0 -48 4 -59 29 -85 26 -26 30 -39 33 -95 2 -52 6 -64
19 -61 18 3 69 -58 69 -82 0 -19 -53 -48 -74 -40 -9 3 -16 1 -16 -5 0 -6 -11
-11 -25 -11 -20 0 -25 5 -25 25 0 14 -6 25 -12 25 -7 0 -26 7 -43 16 -27 14
-30 14 -42 -3 -32 -43 -87 -93 -105 -93 -10 0 -21 -7 -24 -15 -4 -8 -17 -15
-30 -15 -19 0 -24 -5 -24 -24 0 -28 -65 -106 -89 -106 -18 0 -61 -47 -61 -67
0 -7 -6 -13 -14 -13 -8 0 -16 -7 -20 -15 -3 -8 -13 -15 -23 -15 -10 -1 -29
-10 -42 -21 -22 -18 -23 -21 -7 -37 9 -10 16 -23 16 -29 0 -6 6 -16 14 -23 20
-16 9 -41 -18 -39 -49 4 -55 0 -58 -44 -3 -39 -5 -42 -35 -45 -18 -2 -43 4
-55 12 -29 20 -77 21 -84 1 -4 -8 -12 -15 -20 -15 -8 0 -14 -5 -14 -10 0 -16
-48 -31 -76 -24 -33 8 -53 77 -32 114 7 14 23 26 33 28 31 6 67 53 61 78 -4
13 0 27 9 34 10 8 12 17 5 30 -10 18 4 40 25 40 13 0 75 65 75 79 0 4 7 14 15
21 8 7 15 20 15 29 0 15 26 49 95 123 18 19 25 38 25 66 0 23 6 45 15 52 8 7
15 29 15 49 0 21 7 46 15 57 8 10 15 37 15 60 0 35 6 45 45 78 25 22 45 47 45
56 0 10 7 23 15 30 8 7 15 26 15 42 0 16 6 31 15 34 8 4 15 16 15 28 0 11 7
30 15 40 8 11 15 32 15 47 0 14 7 46 16 70 23 61 22 348 -1 365 -8 6 -15 18
-15 27 0 9 -9 21 -19 27 -40 21 -50 39 -44 78 3 20 11 44 18 52 40 48 51 112
26 158 -6 11 -11 46 -11 77 0 53 2 57 47 100 42 38 48 49 49 87 1 24 4 50 7
58 3 8 8 33 12 55 4 21 13 52 21 67 8 15 14 38 14 51 0 14 7 30 15 37 8 7 15
18 15 25 0 8 4 15 8 17 14 6 52 88 52 112 0 50 30 38 104 -39 40 -41 79 -75
88 -75 8 0 21 -7 28 -15 8 -10 31 -15 65 -15 47 0 60 -5 113 -45 33 -25 64
-45 70 -45 5 0 27 20 48 45 22 25 47 45 57 45 14 0 17 11 19 68 3 106 3 109
17 135 11 21 11 28 -4 50 -14 21 -14 32 -5 68 25 90 31 267 11 292 -16 19 -8
33 24 39 13 2 20 12 21 26 1 13 6 33 12 45 5 12 14 40 18 62 6 26 16 41 29 45
29 7 64 41 58 56 -8 21 15 52 52 70 39 18 39 19 37 167 l-1 69 -43 23 c-45 24
-60 51 -34 61 13 5 16 27 16 138 0 85 -4 136 -11 143 -7 7 -14 64 -16 140 -4
120 -3 129 16 147 12 11 21 27 21 37 0 10 5 21 10 24 6 3 10 41 10 83 0 49 6
88 15 106 8 15 15 36 15 46 0 10 7 23 15 30 8 7 15 20 15 30 0 10 13 29 29 42
20 17 30 37 34 64 5 43 27 104 44 125 6 8 13 34 16 59 11 90 28 165 42 180 9
9 11 20 6 26 -5 5 -11 27 -15 50 -5 36 -2 43 23 65 l29 24 -38 40 c-26 28 -39
52 -44 82 -6 41 -5 42 39 70 43 27 57 55 35 68 -8 5 -7 12 2 22 10 12 9 17 -6
25 -14 8 -17 22 -15 89 1 62 -2 83 -15 97 -9 10 -16 32 -16 49 0 50 -26 90
-63 96 -71 11 -113 27 -127 47 -8 12 -27 35 -42 51 -51 54 -60 84 -28 94 11 3
20 14 20 23 0 29 28 60 60 67 17 4 30 12 30 19 0 7 14 25 31 42 l30 29 21 -27
c25 -35 33 -35 70 3 20 19 39 29 53 27 28 -4 95 49 95 75 0 10 -7 20 -15 23
-23 9 -18 27 15 54 27 23 28 25 13 42 -18 20 -48 24 -58 8 -3 -5 -13 -10 -21
-10 -17 0 -19 27 -1 33 10 3 10 9 0 26 -7 11 -13 29 -13 38 1 26 35 63 58 63
43 0 52 10 52 57 0 36 5 51 26 69 21 20 35 24 93 24 84 0 104 15 78 60 -23 38
-22 42 13 76 20 20 30 39 30 61 0 18 6 36 14 40 8 4 16 30 18 58 6 56 27 116
46 128 6 4 12 14 12 21 0 8 7 19 15 26 12 10 20 9 40 -4 13 -9 31 -16 40 -16
22 0 58 39 51 56 -3 8 9 27 27 44 18 16 26 30 20 30 -17 0 -17 62 -1 78 9 9 9
15 0 24 -13 13 -16 50 -5 61 12 13 34 7 40 -10z m7049 -703 c22 0 24 -4 24
-47 0 -27 -7 -70 -15 -97 -8 -27 -15 -72 -15 -101 0 -29 -7 -74 -15 -101 -8
-27 -15 -74 -15 -105 0 -31 -7 -78 -15 -105 -8 -27 -15 -72 -15 -100 0 -28 -7
-73 -15 -100 -8 -27 -15 -74 -15 -104 0 -30 -7 -77 -15 -104 -8 -27 -15 -73
-15 -101 0 -29 -7 -72 -15 -95 -8 -23 -15 -66 -15 -95 0 -28 -7 -74 -15 -101
-8 -27 -15 -71 -15 -99 0 -27 -7 -72 -15 -99 -8 -27 -15 -72 -15 -100 0 -28
-7 -73 -15 -100 -8 -27 -15 -75 -15 -106 0 -32 -7 -77 -15 -100 -8 -23 -15
-66 -15 -94 0 -28 -7 -76 -15 -106 -8 -30 -15 -75 -15 -100 0 -25 -7 -70 -15
-100 -8 -30 -15 -77 -15 -105 0 -27 -7 -72 -15 -99 -8 -27 -15 -68 -15 -92 0
-24 -7 -69 -15 -101 -8 -31 -15 -76 -15 -100 0 -23 -7 -68 -15 -100 -8 -31
-15 -81 -15 -111 0 -29 -4 -62 -10 -72 -5 -10 -14 -52 -19 -92 -10 -79 -26
-145 -47 -195 -8 -17 -14 -44 -14 -60 0 -46 -14 -60 -44 -44 -13 8 -27 22 -29
32 -4 13 -14 19 -35 19 -17 0 -32 6 -36 15 -3 8 -15 15 -27 15 -27 0 -59 36
-59 67 0 22 -10 27 -48 26 -7 -1 -21 11 -30 26 -21 32 -79 91 -91 91 -5 0 -11
7 -15 15 -3 8 -11 15 -19 15 -7 0 -24 11 -36 24 -14 14 -41 28 -64 32 -23 3
-46 12 -52 19 -5 7 -30 20 -55 29 -25 10 -50 22 -57 28 -6 5 -40 11 -74 13
-33 3 -68 10 -77 17 -8 7 -42 13 -75 13 -42 1 -63 5 -71 16 -11 16 -50 27
-121 34 -81 7 -195 37 -226 59 -13 9 -30 16 -37 16 -8 0 -31 14 -52 30 -21 16
-45 30 -53 30 -9 0 -19 4 -22 10 -8 12 -48 13 -60 1 -6 -5 -63 -11 -128 -13
-70 -2 -121 -8 -125 -14 -4 -6 -33 -14 -66 -17 -44 -4 -65 -12 -85 -31 -20
-20 -38 -26 -69 -26 -31 0 -44 -5 -49 -17 -4 -10 -11 -22 -15 -28 -5 -5 -17
-21 -28 -34 -11 -13 -20 -28 -20 -33 0 -4 -18 -8 -39 -8 -30 0 -45 -6 -63 -27
-40 -46 -65 -57 -102 -42 -17 7 -33 16 -36 20 -3 3 -27 16 -54 29 -44 20 -50
20 -58 6 -10 -18 -44 -22 -50 -5 -4 13 -69 39 -116 46 -18 3 -52 16 -75 29
-23 12 -62 33 -85 46 -54 28 -79 70 -63 105 17 37 14 90 -6 102 -15 8 -16 15
-7 48 14 54 -11 106 -98 197 -25 26 -28 38 -28 93 0 47 -4 65 -15 69 -11 5
-15 22 -15 64 0 39 5 62 15 70 25 21 17 57 -20 95 -20 19 -41 35 -48 35 -21 0
-37 22 -37 53 0 21 -12 41 -45 73 -49 47 -54 60 -29 78 13 10 14 16 3 39 -10
21 -10 30 -1 39 7 7 12 28 12 48 0 45 43 85 106 101 l44 11 0 74 0 73 45 44
c28 28 45 54 45 68 1 56 82 105 153 93 40 -6 42 -5 94 52 29 33 53 64 53 69 0
6 14 25 30 43 17 18 30 39 30 46 0 8 7 19 15 26 8 7 15 21 15 31 0 10 11 29
24 43 18 21 33 26 70 26 53 0 86 22 86 58 0 13 7 38 16 55 30 58 34 67 34 81
0 8 28 42 61 75 56 55 66 61 104 61 34 0 49 7 86 40 24 22 47 40 51 40 4 0 27
14 51 30 25 17 50 30 55 30 6 0 14 9 17 20 3 11 10 20 15 20 4 0 11 11 14 25
8 31 29 32 49 2 8 -13 31 -34 50 -47 20 -14 38 -34 41 -46 7 -26 39 -36 72
-24 17 7 36 4 70 -10 25 -11 55 -20 67 -20 12 0 45 -7 72 -16 28 -9 56 -18 63
-20 6 -2 12 -14 12 -28 0 -30 38 -56 85 -56 26 0 45 -9 74 -35 43 -39 67 -43
102 -17 49 35 71 44 82 33 6 -6 28 -11 48 -11 21 0 44 -6 51 -12 43 -40 121
-60 143 -39 6 5 18 11 29 13 16 2 19 15 23 78 3 41 11 93 19 115 7 22 14 47
14 55 1 22 36 60 56 60 9 0 32 11 50 25 18 14 39 25 46 25 8 0 23 6 33 14 21
15 54 6 91 -26 11 -10 34 -18 51 -18 17 0 36 -6 42 -14 6 -8 26 -16 44 -19 78
-13 134 -33 157 -57 35 -37 69 -36 126 5 27 20 61 35 76 35 16 0 28 5 28 10 0
6 11 10 25 10 14 0 25 -4 25 -10 0 -19 44 -50 71 -50 19 0 30 6 34 20 3 11 11
20 16 20 5 0 9 7 9 17 0 9 15 29 33 45 28 25 32 36 32 78 0 44 4 53 41 90 30
29 41 49 42 71 0 18 10 40 21 51 26 24 26 43 1 68 -11 11 -20 24 -20 30 0 17
34 30 64 25 16 -3 39 -5 52 -5z m-4921 -316 c14 -9 25 -23 25 -30 0 -8 9 -14
20 -14 11 0 20 -4 20 -10 0 -14 37 -13 46 2 10 15 34 -19 34 -48 0 -16 27 -49
80 -101 197 -193 220 -219 220 -250 0 -15 7 -34 15 -43 17 -19 20 -65 15 -239
l-4 -123 29 -21 c16 -12 45 -36 64 -54 20 -18 42 -33 48 -33 17 0 45 -44 38
-61 -3 -8 -28 -24 -56 -37 -38 -18 -54 -31 -65 -58 -10 -25 -20 -34 -30 -30
-17 6 -144 -15 -144 -24 0 -13 -56 -73 -75 -80 -20 -7 -29 -23 -54 -83 -6 -16
-20 -31 -31 -34 -27 -7 -25 -26 5 -59 26 -28 33 -54 15 -54 -5 0 -10 -10 -10
-23 0 -15 -15 -37 -41 -59 -32 -28 -53 -37 -110 -47 -38 -6 -86 -9 -107 -5
-32 5 -41 2 -66 -25 -17 -17 -36 -31 -43 -31 -13 0 -53 -35 -53 -46 0 -3 -20
-32 -45 -64 -30 -40 -45 -68 -45 -89 0 -16 -4 -33 -10 -36 -16 -10 -10 -68 11
-100 10 -16 23 -39 28 -50 5 -11 25 -35 45 -53 29 -27 34 -37 26 -52 -15 -28
-12 -87 4 -93 8 -3 14 -23 14 -53 1 -27 8 -54 17 -64 8 -9 15 -22 15 -29 0 -6
7 -23 16 -36 13 -19 16 -46 14 -117 -4 -135 -4 -138 23 -138 12 0 27 -4 34 -8
17 -11 63 -81 63 -96 0 -8 27 -38 60 -67 61 -55 72 -75 45 -85 -8 -4 -15 -17
-15 -30 0 -14 -7 -27 -15 -30 -8 -4 -15 -17 -15 -29 0 -13 -4 -26 -9 -29 -4
-3 -11 -19 -15 -36 -4 -24 0 -37 18 -56 19 -21 24 -41 29 -101 4 -54 10 -78
22 -87 10 -7 16 -21 14 -32 -3 -14 -14 -20 -44 -22 -40 -4 -171 22 -213 41
-16 8 -32 7 -56 -1 -44 -16 -65 -15 -72 3 -9 21 -50 19 -74 -5 -15 -15 -20
-33 -20 -73 0 -70 -36 -127 -75 -119 -15 2 -29 11 -32 18 -7 20 -99 19 -107
-1 -3 -10 -19 -15 -44 -15 -23 0 -45 -6 -52 -15 -7 -8 -26 -15 -42 -15 -18 0
-31 -6 -35 -17 -11 -33 -74 -103 -92 -103 -9 0 -32 -14 -49 -31 -29 -28 -34
-30 -50 -17 -29 24 -92 42 -105 29 -16 -16 -67 -13 -73 4 -10 24 -32 17 -49
-15 -9 -16 -20 -30 -27 -30 -6 0 -8 -11 -5 -29 5 -22 0 -36 -23 -62 -17 -18
-30 -44 -30 -59 0 -15 -13 -41 -30 -60 -16 -18 -30 -41 -30 -50 0 -22 -38 -70
-55 -70 -7 0 -15 -5 -17 -12 -8 -24 -38 1 -38 33 0 45 -36 79 -75 72 -16 -4
-40 -12 -51 -20 -25 -16 -70 -8 -78 13 -9 24 -36 16 -70 -22 -28 -31 -39 -36
-62 -31 -27 5 -31 1 -58 -54 -21 -43 -34 -59 -49 -59 -19 0 -20 -4 -14 -75 l5
-75 -25 0 c-14 0 -31 7 -38 16 -10 15 -15 14 -49 -4 -25 -14 -49 -19 -67 -15
-23 4 -34 -1 -63 -33 -20 -22 -36 -44 -36 -50 0 -6 -7 -17 -15 -24 -8 -7 -15
-21 -15 -32 0 -12 -26 -47 -57 -80 -32 -33 -71 -73 -86 -89 -16 -16 -37 -29
-47 -29 -10 0 -22 -4 -25 -10 -3 -5 -24 -10 -46 -10 -34 0 -43 -5 -57 -30 -15
-26 -22 -30 -63 -30 -29 0 -51 6 -59 15 -19 22 -4 76 30 109 17 16 30 37 30
47 0 9 7 19 15 23 8 3 15 14 15 24 0 11 7 25 15 32 8 7 15 20 15 29 0 9 7 25
15 35 10 13 15 43 15 84 0 55 -4 69 -28 101 l-29 36 19 43 c21 46 99 106 130
98 9 -2 25 5 34 15 9 10 25 19 36 19 12 0 18 7 18 21 0 12 14 39 31 60 17 21
28 43 24 49 -4 6 -10 8 -14 5 -11 -6 -71 24 -71 36 0 5 -4 9 -9 9 -5 0 -25 10
-45 23 l-35 22 6 65 c3 36 10 73 14 82 5 9 9 25 9 34 0 10 7 25 16 35 14 15
14 20 0 47 -8 16 -13 32 -10 35 10 9 -37 29 -53 23 -24 -10 -43 13 -43 50 0
26 -7 39 -30 56 -16 12 -30 29 -30 39 0 9 -7 22 -15 29 -12 10 -15 30 -14 80
2 60 -1 70 -30 110 -17 23 -31 51 -31 62 0 10 -7 21 -15 24 -9 4 -15 19 -15
39 0 18 7 38 15 45 8 7 15 18 15 25 0 7 7 18 15 25 8 7 15 25 15 41 0 19 10
39 30 57 17 16 30 38 30 49 0 10 5 24 12 31 7 7 17 26 22 44 6 17 20 36 31 42
27 15 85 78 85 93 0 6 14 27 30 45 20 22 30 43 30 64 0 19 6 34 15 38 10 4 15
19 15 49 0 24 7 52 15 63 19 25 19 98 1 114 -8 6 -16 21 -18 33 -2 12 -10 22
-18 22 -31 0 -70 41 -70 74 0 18 -7 43 -16 56 -15 23 -15 27 0 50 12 18 16 49
16 123 0 76 4 102 15 112 8 7 15 17 15 22 0 17 44 58 63 58 10 0 20 7 23 15 4
10 20 15 45 15 43 0 79 27 79 59 0 11 4 22 9 25 4 3 8 24 8 46 0 42 24 80 50
80 18 0 53 37 53 57 0 9 8 34 18 54 16 36 20 39 60 39 34 0 42 3 42 19 0 10 7
35 15 54 8 20 15 46 15 58 0 11 14 38 30 59 21 26 30 49 30 73 0 36 21 67 45
67 7 0 15 7 19 15 4 11 20 15 54 15 l49 0 7 46 c3 26 6 69 6 96 0 41 5 54 28
76 33 32 56 79 42 87 -16 10 -12 61 5 75 9 7 14 19 11 26 -3 7 4 24 15 38 11
14 18 26 14 26 -3 0 -1 9 5 20 6 11 17 20 25 20 17 0 73 30 95 50 9 8 21 27
28 43 20 48 83 32 105 -27 4 -10 13 -16 20 -13 6 2 20 0 30 -5 20 -10 16 -40
-10 -69 -18 -21 -7 -69 16 -69 24 -1 53 -30 76 -75 10 -22 44 -65 73 -95 l54
-55 24 30 c13 17 24 40 24 51 0 12 7 27 15 34 8 7 15 18 15 26 0 7 6 17 13 21
15 10 31 36 57 93 16 36 30 50 68 68 42 19 60 22 163 19 63 -2 120 -7 126 -10
6 -4 28 0 48 9 38 15 96 15 217 -1 46 -7 47 -6 61 27 9 20 11 39 6 50 -14 26
-10 121 5 141 11 14 11 25 3 46 -13 34 -4 61 20 61 10 0 29 7 43 14 34 19 66
19 95 0z m-5874 -234 c10 -6 19 -17 19 -24 0 -17 44 -31 88 -27 31 2 32 1 32
-33 0 -20 -4 -36 -10 -36 -19 0 -42 -50 -50 -107 -12 -80 -34 -174 -48 -200
-7 -12 -12 -37 -12 -56 0 -19 -6 -40 -14 -46 -8 -6 -16 -39 -19 -74 -3 -34
-13 -109 -22 -167 -9 -58 -17 -127 -19 -155 -2 -27 -7 -64 -11 -82 -5 -22 -2
-39 9 -55 9 -12 16 -34 16 -49 0 -50 12 -89 36 -114 13 -14 24 -36 24 -49 0
-12 5 -27 12 -34 8 -8 8 -15 -1 -26 -7 -8 -11 -27 -9 -43 3 -25 7 -28 38 -28
39 -1 84 -11 116 -27 12 -5 30 -8 40 -4 25 7 52 -10 98 -61 45 -51 47 -86 4
-91 -26 -3 -28 -7 -28 -45 0 -30 6 -48 20 -60 11 -9 20 -12 20 -6 0 6 16 9 37
7 l38 -3 2 -54 c1 -32 7 -57 15 -62 9 -6 15 -40 18 -106 5 -92 6 -98 28 -101
12 -2 37 6 56 17 41 26 72 27 87 2 10 -14 21 -17 53 -14 35 4 46 1 76 -26 32
-29 34 -32 18 -45 -10 -7 -18 -21 -18 -30 0 -9 -7 -31 -16 -48 -20 -39 -191
-208 -210 -208 -8 0 -14 -4 -14 -10 0 -5 -7 -10 -15 -10 -8 0 -15 -8 -15 -19
0 -10 -7 -24 -15 -31 -8 -7 -15 -23 -15 -37 0 -13 -7 -26 -15 -29 -8 -4 -15
-17 -15 -30 0 -14 -7 -41 -15 -61 -14 -33 -18 -35 -49 -30 -23 4 -43 -1 -65
-14 -21 -12 -50 -19 -85 -19 -39 0 -55 -4 -60 -15 -3 -9 -18 -15 -35 -15 -22
0 -35 -8 -51 -30 -16 -22 -29 -30 -52 -30 -53 0 -68 -23 -68 -103 0 -80 -15
-107 -62 -107 -16 0 -28 -5 -28 -13 0 -7 -11 -24 -24 -38 -13 -14 -29 -35 -35
-47 -16 -31 -42 -27 -66 8 -22 33 -55 39 -75 15 -7 -8 -18 -15 -25 -15 -7 0
-18 -7 -25 -15 -17 -21 -116 -21 -124 0 -3 8 -14 15 -24 15 -23 0 -42 19 -42
41 0 9 -7 19 -15 23 -8 3 -15 14 -15 26 0 26 -30 60 -52 60 -10 0 -26 4 -36
10 -9 5 -29 14 -45 20 -15 5 -31 20 -36 33 -11 29 -28 37 -63 30 -19 -4 -30 2
-47 22 -11 15 -21 36 -21 46 0 24 -46 26 -72 3 -17 -16 -19 -15 -42 7 -13 13
-25 33 -27 44 -3 13 -14 21 -31 23 -25 3 -27 7 -30 60 l-3 57 -38 6 c-21 3
-43 11 -50 18 -14 14 -52 14 -79 0 -17 -9 -25 -6 -50 20 l-30 31 -42 -23 c-22
-12 -57 -39 -76 -60 -50 -56 -140 -89 -273 -103 l-65 -7 -21 41 c-12 23 -21
48 -21 57 0 9 -7 18 -15 21 -19 8 -19 43 0 50 8 4 15 12 15 19 0 7 6 16 13 19
79 39 100 79 48 91 -17 4 -33 11 -36 16 -10 16 115 123 149 129 29 5 31 8 37
60 3 30 12 68 19 83 11 22 11 33 2 48 -19 30 -14 59 11 68 12 5 37 25 54 44
30 32 33 41 33 95 0 41 5 63 15 72 10 9 15 32 15 75 0 43 5 66 15 75 19 16 19
34 0 50 -9 8 -15 30 -15 56 l0 44 56 0 c55 0 58 1 105 51 49 51 49 52 49 119
0 65 10 103 48 179 19 39 47 71 62 71 19 0 9 35 -20 70 -17 19 -30 44 -30 55
0 12 -14 34 -30 50 -31 30 -38 62 -19 96 8 16 5 27 -15 54 -30 39 -34 84 -10
120 16 24 12 45 -8 45 -20 0 -49 44 -46 69 5 38 32 49 69 29 41 -24 50 -22 79
12 24 30 63 40 75 20 4 -6 23 -10 44 -9 22 2 56 -6 82 -19 25 -12 50 -22 55
-22 13 0 35 28 58 73 11 20 24 37 30 37 21 0 46 40 46 71 0 23 10 41 35 65 19
18 35 40 35 48 0 22 70 66 105 66 17 0 40 -7 51 -15 25 -19 68 -19 84 0 7 9
19 14 27 11 26 -10 42 5 37 34 -4 15 -1 30 4 34 16 10 59 -14 71 -40 5 -13 22
-26 36 -30 31 -8 115 4 115 16 0 5 12 13 28 16 15 4 37 14 50 22 12 8 22 10
22 6 0 -5 6 -2 13 7 15 19 66 47 90 48 10 1 27 -4 38 -9z m2693 -180 c9 -22
16 -44 16 -49 0 -5 12 -22 28 -38 15 -16 40 -45 57 -66 25 -31 36 -37 68 -37
63 0 105 -26 113 -69 4 -20 11 -45 17 -56 5 -10 11 -55 13 -98 2 -44 7 -85 12
-91 5 -6 8 -29 8 -51 -1 -31 -5 -40 -21 -43 -24 -5 -65 -41 -65 -58 0 -6 7
-14 15 -18 11 -4 15 -21 15 -60 0 -39 4 -55 15 -60 18 -7 20 -43 3 -49 -10 -3
-10 -9 0 -26 18 -30 16 -110 -3 -117 -11 -5 -15 -22 -15 -65 0 -38 -6 -69 -16
-84 -9 -14 -14 -34 -11 -46 3 -13 -2 -28 -14 -40 -10 -10 -19 -32 -19 -48 0
-16 -7 -34 -15 -41 -9 -7 -13 -21 -10 -31 4 -12 -1 -23 -14 -31 -12 -7 -21
-18 -21 -25 0 -7 -4 -13 -10 -13 -5 0 -10 -8 -10 -17 0 -10 -7 -31 -16 -48 -9
-16 -17 -37 -18 -45 -2 -26 -39 -100 -50 -100 -5 0 -21 13 -35 29 -20 22 -39
30 -81 35 -60 8 -57 8 -113 2 -30 -3 -50 -15 -89 -52 l-50 -49 -15 23 c-10 14
-26 22 -44 22 -15 0 -31 5 -34 10 -3 6 -23 10 -44 10 -61 0 -82 34 -31 51 33
12 38 30 15 49 -9 8 -15 30 -15 59 -1 41 -4 48 -33 66 -40 25 -45 49 -18 86
26 35 29 148 6 193 -19 36 -19 70 -1 85 16 13 20 127 5 137 -13 8 -11 34 2 34
6 0 20 -11 31 -25 25 -32 45 -32 61 3 6 15 16 30 21 34 6 4 12 36 14 72 l4 65
-28 -2 c-27 -2 -29 0 -32 42 -2 32 1 47 12 53 38 22 13 61 -61 94 -44 20 -54
42 -28 64 19 16 21 141 3 170 -10 15 -10 27 1 56 12 33 12 39 -3 49 -21 16
-22 75 -1 75 8 0 23 -4 33 -9 31 -16 111 -31 129 -24 10 4 31 19 46 35 16 15
37 28 47 28 11 0 24 9 30 20 13 24 43 26 64 4 14 -14 20 -11 57 25 31 31 48
41 74 41 29 0 35 -5 49 -40z m-898 -495 c24 -18 45 -25 79 -25 31 0 47 -5 51
-15 4 -9 19 -15 39 -15 20 0 35 6 39 15 3 8 14 15 24 15 11 0 25 -7 32 -15 16
-19 39 -19 64 0 28 21 51 19 81 -9 21 -20 25 -30 19 -48 -5 -13 -9 -34 -10
-48 -1 -14 -5 -33 -9 -42 -6 -14 -2 -18 17 -18 35 0 45 -15 39 -63 -5 -34 -10
-43 -28 -45 -16 -2 -23 2 -23 12 0 18 -23 21 -51 6 -17 -10 -19 -22 -19 -111
0 -55 -5 -109 -10 -120 -8 -13 -7 -25 1 -41 19 -35 15 -185 -5 -207 -30 -33
-9 -121 29 -121 18 0 36 -52 23 -67 -8 -10 -7 -17 8 -28 19 -15 19 -15 0 -30
-24 -18 -26 -73 -3 -90 10 -7 40 -15 69 -18 72 -9 80 -21 39 -58 -18 -16 -32
-31 -30 -32 2 -1 14 -8 27 -15 20 -11 28 -8 74 23 28 20 58 44 67 54 9 9 24
20 34 24 9 3 17 13 17 22 0 10 10 15 29 15 17 0 33 5 36 10 8 12 52 13 59 1 3
-5 21 -12 39 -15 31 -6 87 -54 87 -75 0 -5 7 -14 15 -21 23 -19 18 -54 -12
-86 -26 -28 -27 -33 -24 -119 2 -49 7 -95 12 -101 5 -6 8 -28 8 -50 -1 -21 3
-69 9 -106 12 -81 4 -194 -14 -209 -17 -14 -18 -46 -3 -51 5 -2 11 -12 13 -23
2 -13 13 -22 32 -25 26 -5 29 -9 32 -50 2 -24 8 -50 13 -56 7 -8 6 -14 -1 -19
-5 -3 -10 -17 -10 -30 0 -14 -18 -42 -45 -71 -25 -25 -45 -53 -45 -60 0 -7
-20 -34 -45 -58 -37 -37 -45 -52 -45 -81 0 -47 -15 -75 -41 -75 -28 0 -43 -45
-28 -84 18 -43 13 -245 -7 -296 -15 -36 -15 -41 1 -56 11 -11 14 -25 10 -38
-14 -46 -24 -103 -25 -144 0 -37 -4 -45 -30 -60 -16 -9 -30 -24 -30 -33 0 -15
-19 -39 -31 -39 -4 0 -26 16 -49 35 -23 19 -48 35 -56 35 -8 0 -14 5 -14 10 0
6 -26 10 -58 10 -51 0 -63 4 -92 30 -18 17 -37 30 -42 30 -4 0 -8 5 -8 11 0
15 -76 89 -92 89 -7 0 -21 7 -31 15 -23 17 -49 9 -42 -14 2 -9 -2 -29 -10 -45
-8 -15 -15 -35 -15 -42 0 -8 -4 -14 -10 -14 -5 0 -12 -11 -16 -24 -3 -14 -12
-27 -20 -30 -8 -3 -14 -14 -14 -24 0 -11 -7 -25 -15 -32 -9 -7 -15 -29 -15
-53 0 -22 -7 -48 -15 -57 -11 -12 -16 -40 -17 -93 0 -69 -3 -78 -27 -100 -15
-13 -34 -26 -44 -30 -9 -3 -17 -13 -17 -22 0 -9 -7 -29 -15 -45 -13 -25 -13
-33 0 -70 20 -57 20 -163 0 -180 -8 -7 -15 -18 -15 -25 0 -7 -7 -15 -15 -19
-8 -3 -15 -15 -15 -26 0 -12 -7 -28 -15 -37 -14 -13 -13 -17 7 -39 13 -13 30
-24 38 -24 16 0 46 -30 66 -64 8 -13 10 -48 7 -97 -4 -51 -2 -78 6 -83 15 -10
14 -51 -3 -65 -8 -7 -15 -40 -18 -87 -3 -41 -10 -80 -17 -87 -6 -6 -11 -21
-11 -33 0 -12 -7 -27 -15 -34 -8 -7 -15 -20 -15 -29 0 -9 -7 -25 -15 -35 -8
-11 -15 -32 -15 -47 0 -20 -10 -35 -41 -58 -48 -35 -63 -60 -73 -122 -4 -24
-13 -64 -21 -89 -8 -25 -21 -71 -30 -102 -9 -32 -20 -58 -26 -58 -5 0 -12 -8
-16 -18 -8 -22 -63 -94 -80 -105 -7 -4 -13 -17 -13 -28 0 -17 -33 -54 -100
-111 -13 -12 -20 -30 -20 -53 0 -49 -25 -95 -76 -135 -38 -31 -43 -40 -43 -76
-1 -25 5 -46 14 -54 22 -18 19 -50 -4 -50 -11 0 -23 5 -26 11 -4 5 -18 14 -31
19 -28 11 -30 25 -8 69 12 24 14 46 10 84 -5 37 -2 60 9 81 8 15 15 38 15 50
0 12 7 31 15 42 8 10 15 28 15 40 0 11 9 29 20 39 17 15 19 26 13 74 -3 30
-15 69 -25 87 -17 29 -21 31 -67 26 -33 -3 -60 1 -82 12 -44 22 -58 20 -81 -9
-22 -29 -44 -31 -84 -10 -16 8 -36 15 -45 15 -20 0 -39 20 -39 40 0 25 -29 46
-87 65 -29 10 -53 21 -53 26 0 5 -8 9 -17 9 -35 0 -47 17 -44 62 1 25 8 46 17
51 7 4 14 19 14 32 0 13 4 26 9 29 4 3 11 23 15 45 3 22 12 41 18 43 9 3 13
37 14 118 1 93 5 115 18 122 9 5 16 16 16 25 0 9 6 24 13 32 41 50 54 191 21
230 -10 11 -26 21 -35 21 -9 0 -32 16 -52 35 l-37 36 0 88 c0 67 4 92 15 101
8 7 15 24 15 39 0 15 4 31 9 36 16 18 21 102 7 114 -36 30 -27 134 15 180 16
18 33 49 39 71 6 22 26 57 45 77 19 21 35 44 35 51 0 7 11 17 25 22 37 14 124
100 118 117 -3 8 8 26 28 44 31 28 33 32 37 115 3 77 1 88 -17 106 -16 14 -21
31 -21 68 0 27 -5 52 -11 56 -10 6 -9 24 7 115 6 40 -16 79 -46 79 -9 0 -21 5
-27 11 -6 6 -22 17 -35 23 -12 6 -24 22 -26 34 -2 12 -8 22 -13 22 -16 0 -59
107 -59 148 0 22 -7 53 -15 68 -8 16 -15 36 -15 45 0 27 -25 69 -41 69 -9 0
-22 7 -29 15 -7 8 -21 15 -33 15 -19 0 -127 101 -127 119 0 5 -7 14 -15 21
-19 16 -19 89 0 114 8 11 15 27 15 37 0 9 7 19 15 23 8 3 15 16 15 29 0 23 88
111 174 175 17 12 34 32 38 43 5 12 17 23 28 26 14 4 22 17 27 47 7 45 60 106
92 106 10 0 24 7 31 15 7 8 19 15 28 15 9 0 30 5 48 12 27 9 38 9 59 -2 14 -7
26 -11 28 -9 21 29 37 62 37 77 0 11 7 25 15 32 8 7 15 20 15 29 0 9 14 27 30
41 17 14 30 32 30 41 0 9 7 22 15 29 8 7 15 22 15 34 0 12 6 30 13 41 7 11 21
47 32 80 10 33 25 67 32 76 7 8 13 27 13 40 0 14 7 34 15 45 8 10 15 28 15 39
0 11 21 42 45 69 25 27 45 59 45 71 0 13 7 28 15 35 8 7 15 22 15 34 0 12 14
36 30 54 17 18 30 39 30 47 0 7 7 15 15 19 8 3 15 14 15 24 0 10 13 29 30 42
16 14 29 30 30 36 0 6 7 17 15 24 8 7 15 23 15 37 0 13 7 26 15 29 8 4 15 14
15 23 0 10 14 30 30 46 27 26 30 35 30 89 0 49 4 64 23 83 28 28 34 28 73 -2z"/>
</g>
</svg>
